<svg width="5000" height="5000" viewBox="0 0 5000 5000" fill="none" xmlns="http://www.w3.org/2000/svg">
<g clip-path="url(#clip0_3848_2535)">
<g opacity="0.5">
<path d="M2500.81 1991.03L2940.84 2245.09L2940.84 2753.2L2500.81 3007.26L2060.77 2753.2L2060.77 2245.09L2500.81 1991.03Z" stroke="white" stroke-width="61"/>
<path d="M1830.17 2111.87L2501.35 1724.36L3172.54 2111.87L3172.54 2886.89L2501.35 3274.4L1830.17 2886.89L1830.17 2111.87Z" stroke="white" stroke-width="61"/>
</g>
<path d="M2582.83 2499.72C2582.83 3306.46 2500.63 3960.44 2500.63 3960.44C2500.63 3960.44 2418.43 3306.46 2418.43 2499.72C2418.43 1692.99 2500.63 1039 2500.63 1039C2500.63 1039 2582.83 1692.99 2582.83 2499.72Z" fill="white"/>
<path d="M2541.54 2570.48C1969.37 2900.82 1464.27 3097.14 1464.27 3097.14C1464.27 3097.14 1886.83 2757.87 2459 2427.53C3031.17 2097.19 3536.27 1900.87 3536.27 1900.87C3536.27 1900.87 3113.7 2240.14 2541.54 2570.48Z" fill="white"/>
<path d="M2460.07 2570.65C2074.65 2348.13 1803.48 2096.26 1803.48 2096.26C1803.48 2096.26 2157.19 2205.17 2542.6 2427.69C2928.02 2650.21 3199.19 2902.08 3199.19 2902.08C3199.19 2902.08 2845.48 2793.17 2460.07 2570.65Z" fill="white"/>
</g>
<defs>
<clipPath id="clip0_3848_2535">
<rect width="5000" height="5000" fill="white"/>
</clipPath>
</defs>
</svg>
