<svg width="5000" height="5000" viewBox="0 0 5000 5000" fill="none" xmlns="http://www.w3.org/2000/svg">
<g clip-path="url(#clip0_3848_2264)">
<path d="M2615.21 2438.09C2615.21 2507.28 2558.28 2564.21 2489.09 2564.21C2419.91 2564.21 2362.98 2507.28 2362.98 2438.09C2362.98 2368.91 2419.91 2311.98 2489.09 2311.98C2558.28 2311.98 2615.21 2368.91 2615.21 2438.09Z" fill="#927D9C"/>
<path d="M3476.69 2438.09C3476.69 2979.79 3030.79 3425.69 2489.09 3425.69C1947.4 3425.69 1501.5 2979.79 1501.5 2438.09C1501.5 1896.4 1947.4 1450.5 2489.09 1450.5C3030.79 1450.5 3476.69 1896.4 3476.69 2438.09Z" stroke="#927D9C" stroke-width="45"/>
<g clip-path="url(#clip1_3848_2264)">
<path d="M2932.95 2535.41C2926.88 2651.22 2920.64 2703.7 2893.89 2841.25L2642.13 2765.72L2932.95 2535.41Z" fill="white"/>
<path d="M3244.05 2126.6L3300.52 2011.18C3300.53 2011.15 3300.55 2011.12 3300.56 2011.08C3300.91 2010.26 3300.52 2009.29 3299.69 2008.95C3299.66 2008.93 3299.63 2008.92 3299.59 2008.91C3256.02 1993.58 3211.06 1985.1 3164.74 1983.5C3070.58 1980.26 2761.93 2003.25 2623.38 2075.24C2622.1 2075.45 2620.8 2075.15 2619.76 2074.4C2520.59 2000.92 2670.73 1894.85 2548.72 1902.42C2545.37 1902.64 2545.27 1902.14 2548.42 1900.92C2751.88 1822.24 2962.44 1791.01 3180.08 1807.22C3246.33 1812.16 3311.71 1822.5 3376.22 1838.25C3424.87 1850.11 3472.08 1868.58 3517.86 1893.68C3520.43 1895.1 3521.63 1898.18 3520.68 1900.96C3497.52 1968.34 3470.77 2034.59 3440.42 2099.72C3429.97 2122.21 3418.36 2146.76 3405.6 2173.38C3373.8 2239.74 3338.86 2304.45 3300.78 2367.51C3300.08 2368.67 3299.78 2370 3299.92 2371.31C3311.24 2488.78 3299.02 2603.04 3263.27 2714.09C3233.58 2806.39 3188.25 2891.52 3127.29 2969.48C3046.64 3072.66 2947.55 3152.62 2830 3209.37C2828.77 3209.94 2828.45 3209.61 2829.04 3208.38C2887.87 3081.53 2928.32 2950.96 2950.4 2816.68C2951.92 2807.38 2955.05 2799.6 2959.78 2793.34C3011.07 2725.88 3045.98 2650.94 3064.52 2568.51C3091.49 2448.74 3083.62 2332.27 3040.92 2219.1C3017.39 2156.81 2983.54 2098.83 2939.37 2045.16C2938.5 2044.09 2938.75 2043.45 2940.12 2043.22C3025.75 2029.34 3111.56 2028.4 3197.53 2040.37C3198.54 2040.52 3199.42 2041.12 3199.93 2041.99C3216.14 2069.86 3230.29 2098.03 3242.38 2126.5C3242.89 2127.76 3243.45 2127.8 3244.05 2126.6Z" fill="white"/>
<path d="M2379.18 1974.17C2483.58 1923.67 2532.57 1903.85 2665.99 1861L2737.3 2126.38L2379.18 1974.17Z" fill="white"/>
<path d="M2382.58 3219.76L2456.49 3324.85C2456.52 3324.89 2456.54 3324.92 2456.56 3324.94C2457.12 3325.65 2458.15 3325.77 2458.85 3325.21C2458.88 3325.19 2458.91 3325.16 2458.93 3325.14C2493.37 3294.35 2522.46 3259.04 2546.19 3219.23C2594.4 3138.29 2723.01 2856.76 2726.71 2700.67C2727.13 2699.45 2728.03 2698.46 2729.19 2697.91C2841.36 2646.43 2861.95 2829.1 2914.11 2718.54C2915.53 2715.49 2916.02 2715.65 2915.57 2719C2886.46 2935.19 2812.35 3134.74 2693.25 3317.62C2656.99 3373.29 2616.42 3425.59 2571.54 3474.53C2537.71 3511.44 2498.76 3543.9 2454.71 3571.92C2452.23 3573.49 2448.95 3573.05 2446.97 3570.88C2399.09 3518.12 2353.93 3462.75 2311.49 3404.77C2296.83 3384.78 2280.91 3362.77 2263.74 3338.77C2220.92 3278.92 2181.05 3217.11 2144.15 3153.36C2143.47 3152.19 2142.45 3151.28 2141.24 3150.77C2032.85 3104.08 1938.63 3038.31 1858.55 2953.47C1791.99 2882.97 1739.24 2802.22 1700.31 2711.24C1648.78 2590.85 1626.47 2465.49 1633.39 2335.14C1633.48 2333.78 1633.93 2333.66 1634.72 2334.77C1717.52 2447.45 1812.43 2545.82 1919.45 2629.88C1926.87 2635.69 1932.17 2642.18 1935.37 2649.35C1969.76 2726.8 2018.6 2793.51 2081.89 2849.48C2173.84 2930.83 2279.68 2980.06 2399.43 2997.19C2465.35 3006.6 2532.46 3004.88 2600.78 2992.04C2602.13 2991.79 2602.57 2992.32 2602.12 2993.63C2573 3075.35 2532.48 3150.99 2480.55 3220.55C2479.94 3221.36 2478.99 3221.85 2477.98 3221.88C2445.75 3222.64 2414.25 3221.46 2383.47 3218.34C2382.12 3218.18 2381.82 3218.65 2382.58 3219.76Z" fill="white"/>
<path d="M1858.63 1927.54L1730.53 1937.49C1730.49 1937.49 1730.45 1937.5 1730.42 1937.5C1729.53 1937.62 1728.9 1938.45 1729.02 1939.34C1729.02 1939.37 1729.03 1939.41 1729.04 1939.44C1737.95 1984.77 1753.48 2027.8 1775.61 2068.52C1820.63 2151.28 1997.16 2405.52 2129.53 2488.33C2130.35 2489.32 2130.75 2490.6 2130.63 2491.87C2117.69 2614.61 1950.07 2539.13 2018.54 2640.39C2020.44 2643.17 2020.06 2643.51 2017.41 2641.42C1846.32 2506.08 1712.5 2340.55 1615.97 2144.81C1586.58 2085.23 1562.3 2023.65 1543.1 1960.08C1528.62 1912.15 1520.56 1862.1 1518.94 1809.91C1518.86 1806.97 1520.91 1804.38 1523.79 1803.79C1593.59 1789.53 1664.25 1778.93 1735.77 1772.01C1760.44 1769.6 1787.49 1767.13 1816.9 1764.61C1890.22 1758.31 1963.71 1755.56 2037.38 1756.34C2038.72 1756.36 2040.03 1755.94 2041.08 1755.16C2136.54 1685.76 2241.17 1638.27 2354.99 1612.68C2449.59 1591.4 2545.95 1587.22 2644.06 1600.16C2773.9 1617.25 2893.1 1662.02 3001.68 1734.47C3002.8 1735.24 3002.67 1735.69 3001.31 1735.81C2862.16 1749.53 2729.14 1780.98 2602.24 1830.14C2593.46 1833.55 2585.17 1834.81 2577.37 1833.9C2493.21 1823.97 2410.92 1831.94 2330.49 1857.82C2213.62 1895.41 2117.28 1961.32 2041.46 2055.57C1999.74 2107.47 1966.97 2166.07 1943.17 2231.38C1942.69 2232.66 1942.01 2232.78 1941.12 2231.72C1885.68 2164.98 1841.3 2091.54 1807.96 2011.39C1807.58 2010.46 1807.64 2009.39 1808.14 2008.5C1823.92 1980.39 1841 1953.9 1859.4 1929.03C1860.22 1927.94 1859.96 1927.45 1858.63 1927.54Z" fill="white"/>
<path d="M2166.45 2750.03C2069.94 2685.73 2027.98 2653.59 1923.33 2560.4L2128.9 2407.81L2166.45 2750.03Z" fill="white"/>
</g>
</g>
<defs>
<clipPath id="clip0_3848_2264">
<rect width="5000" height="5000" fill="white"/>
</clipPath>
<clipPath id="clip1_3848_2264">
<rect width="2004" height="1981" fill="white" transform="translate(1518 1592)"/>
</clipPath>
</defs>
</svg>
