<svg width="5000" height="5000" viewBox="0 0 5000 5000" fill="none" xmlns="http://www.w3.org/2000/svg">
<g clip-path="url(#clip0_3848_2497)">
<path d="M1860.8 3279.7C1860.8 3268.51 1869.57 3256 1874.47 3246.2C1908.99 3177.16 1954.41 3115.07 2000.1 3053.13C2073.75 2953.29 2152.95 2855.78 2235.92 2763.53C2283.82 2710.28 2339.23 2662.66 2385.36 2608.14C2386.39 2606.92 2359.75 2627.29 2354.06 2631.73C2307.04 2668.36 2264.37 2707.53 2224.24 2751.85C2168.93 2812.94 2122.26 2880.13 2075.47 2947.78C2024.79 3021.05 1974.08 3093.24 1932.43 3172.15C1914.63 3205.88 1896.28 3240.14 1871.16 3269.12C1861.06 3280.79 1857.63 3276.65 1862.57 3262.07C1889.57 3182.42 1938.34 3110.28 1986.87 3042.55C2038.76 2970.14 2095 2900.38 2153.49 2833.17C2154.45 2832.07 2167.13 2820.02 2165.62 2829.87C2162.86 2847.79 2145.03 2870.26 2136.3 2885.19C2081.84 2978.38 2013.54 3062.18 1956.46 3153.63C1913.48 3222.5 1876.7 3294.96 1833.91 3363.9C1830.9 3368.75 1828.9 3378.17 1833.03 3368.3C1841.43 3348.25 1848.76 3327.66 1856.84 3307.47" stroke="white" stroke-width="30.1522" stroke-linecap="round"/>
<path d="M2015 2470.74C2004.5 2452.48 2008.06 2469.73 2009.7 2485.3C2016.79 2552.99 2025.89 2619.67 2035.32 2686.37C2059.38 2856.47 2073.97 3031.09 2091.12 3203.9C2098.16 3274.84 2103.54 3348.59 2114.62 3417.85C2117.35 3434.91 2123.57 3456 2124.17 3473.86C2124.24 3475.94 2117 3440.38 2115.99 3432.42C2095.95 3274.63 2059.15 3126.81 2033.05 2972.86C2016.42 2874.82 1997.46 2768.68 1993.32 2665.37C1992.93 2655.64 1991.05 2584.55 1998.02 2620.84C2029.28 2783.56 2041.59 2959.35 2056.09 3129.41C2062.84 3208.56 2071.39 3289.68 2083.23 3366.89C2087.59 3395.28 2094.29 3424.99 2096.88 3453.7" stroke="white" stroke-width="30.1522" stroke-linecap="round"/>
<path d="M3216.38 2571.56C3215.28 2560.55 3212.47 2560.61 3216.38 2573.32C3226.86 2607.36 3232.35 2644.61 3240.41 2679.33C3278.39 2842.96 3308.36 3008.04 3336.28 3173.69C3342.26 3209.18 3350.47 3244.98 3359.2 3279.92C3365.88 3306.62 3353.12 3268.75 3350.83 3262.51C3313.54 3161.01 3294.6 3048.54 3283.83 2941.39C3276.36 2867.13 3272.87 2792.45 3262.01 2718.56C3260.08 2705.48 3256.06 2692.11 3256.06 2678.89C3256.06 2661.72 3256.59 2695.26 3256.94 2698.07C3265.65 2769.23 3286.47 2840.86 3301.46 2910.97C3316.7 2982.24 3333.93 3053.35 3347.3 3124.98C3351.48 3147.36 3357.7 3168.35 3363.17 3190.22C3366.83 3204.87 3359.27 3193.19 3355.24 3186.47" stroke="white" stroke-width="30.1522" stroke-linecap="round"/>
<path d="M1609.18 2583.24C1608.77 2581.19 1602.76 2572.79 1606.15 2578.11C1614.24 2590.84 1620.11 2604.77 1628.53 2617.4C1664.47 2671.32 1698.59 2726.84 1735.55 2780.03C1767.23 2825.62 1802.06 2868.96 1833.71 2914.68C1864.33 2958.91 1896.75 2999.93 1940.84 3031.25C2045.56 3105.66 2149.95 3179.76 2262.25 3242.14C2285.53 3255.08 2313.49 3266.37 2338.72 3274.79C2368.09 3284.57 2396.93 3295.86 2426.62 3304.63C2474.4 3318.75 2528.73 3325.3 2578.41 3328.06C2601.92 3329.37 2625.22 3332.38 2648.82 3332.38C2677.14 3332.38 2705.18 3330.28 2733.46 3330.28C2767.56 3330.28 2800.72 3322.02 2834.65 3319.9C2870.03 3317.69 2906.71 3307.39 2940.73 3297.87C2977.21 3287.66 3018.25 3281.73 3050.78 3261.03C3096.48 3231.95 3141.35 3198.5 3180.42 3160.77C3196.87 3144.88 3218.77 3134.96 3232.3 3116.24C3259 3079.26 3282.98 3041.28 3307.84 3003.04C3346.61 2943.4 3365.97 2872.95 3400.75 2810.8C3426.04 2765.62 3439.46 2715.42 3453.79 2666.13C3462.99 2634.53 3476.47 2603.06 3482.59 2570.65C3486.14 2551.83 3486.73 2533.3 3489.82 2514.46C3491.4 2504.8 3503.62 2478.98 3496.69 2485.9C3492.55 2490.04 3489.31 2496.86 3486.32 2501.87C3475.58 2519.87 3463.57 2537.19 3452.51 2555.03C3434.34 2584.36 3409.62 2608.42 3385.36 2632.67C3361.16 2656.88 3329.26 2671.14 3305.74 2696.67C3280.58 2724 3255.36 2752.09 3228.68 2777.93C3208.02 2797.94 3179.6 2812 3154.54 2825.49C3123.57 2842.17 3088.88 2853.72 3056.15 2866.53C3018.72 2881.18 2980.49 2894.39 2942.13 2906.4C2863.1 2931.14 2784.85 2950.95 2702.45 2960.96C2608.19 2972.4 2513.65 2973.37 2419.05 2966.2C2331.75 2959.59 2246.39 2946.62 2160.13 2931.58C2118.92 2924.4 2077.53 2914.79 2038.3 2899.99C2000.41 2885.69 1967.78 2858.08 1936.53 2833.07C1909.02 2811.06 1878.21 2793.63 1851.43 2770.47C1816.99 2740.69 1779.69 2716.52 1741.26 2692.24C1711.33 2673.34 1685.39 2651.77 1662.1 2625.21C1650.14 2611.56 1637.48 2596.23 1630.16 2579.51C1629 2576.87 1621.2 2564.29 1628.53 2571.12C1658.87 2599.36 1683.06 2631.6 1706.52 2665.78C1720.4 2686 1737.98 2704.08 1754.2 2722.44C1772.67 2743.34 1787.35 2767.23 1806.89 2787.26C1839.99 2821.17 1867.45 2859.6 1897.71 2895.91C1929.72 2934.33 1959.52 2973.71 1990.04 3013.3C2009.71 3038.82 2035.57 3059.41 2054.51 3085.23C2070.06 3106.44 2082.86 3129.37 2098.11 3150.86C2136.36 3204.77 2201.78 3240.43 2261.32 3266.16C2290.04 3278.57 2319.36 3288.25 2348.75 3298.8C2380.24 3310.1 2413 3320.63 2445.39 3329.23C2511.11 3346.66 2577.46 3363.22 2645.32 3369.68C2717.43 3376.55 2786.38 3349.69 2855.63 3334.47C2893.88 3326.07 2928.52 3305.34 2964.87 3291.57C2998.14 3278.97 3027.7 3262.39 3058.13 3244.36C3077.4 3232.94 3097.03 3222.98 3115.83 3210.67C3140.68 3194.4 3160.9 3174.43 3184.15 3156.11C3214.99 3131.81 3240.28 3099.21 3267.85 3071.24C3290.2 3048.58 3307.76 3021.61 3325.67 2995.46C3340.69 2973.55 3351.1 2950.53 3359.25 2925.17C3375.82 2873.62 3390.8 2822.02 3405.41 2770C3425.86 2697.24 3448.57 2624.38 3474.78 2553.63C3480.46 2538.29 3486.73 2523.23 3493.08 2508.17C3495.45 2502.55 3501.61 2492.72 3501.94 2486.72C3502.58 2475.14 3501.33 2471.52 3493.08 2482.52C3443.63 2548.46 3405.19 2622.39 3344.56 2679.65C3329.54 2693.84 3313.43 2706.53 3298.86 2721.27C3279.52 2740.85 3262.21 2763.04 3240.81 2780.49C3211.51 2804.37 3177.32 2819.28 3145.56 2839.13C3130.31 2848.66 3113.96 2855.46 3097.88 2863.5C3073.94 2875.47 3051.5 2890.46 3027.23 2901.74C2989.49 2919.27 2951.09 2937.47 2911.36 2950C2871.49 2962.57 2831.89 2976.33 2790.46 2982.99C2743.95 2990.47 2698.51 3003.12 2651.39 3006.66C2544.4 3014.68 2439.53 3009.58 2333.13 2997.56C2286.39 2992.29 2240.21 2984.6 2194.17 2975.18C2171.66 2970.58 2149.96 2962.38 2128.42 2954.55C2103.82 2945.6 2078.78 2939.04 2054.86 2928.32C2033.33 2918.67 2009.32 2910.92 1989.46 2898.01C1973.37 2887.55 1957.18 2877.12 1941.19 2866.53C1907.7 2844.34 1872.44 2826.09 1837.9 2805.68C1798.98 2782.68 1759.21 2757.64 1727.74 2724.77C1706.52 2702.61 1684.25 2680.74 1665.02 2656.81C1652.31 2640.99 1642.07 2623.68 1628.41 2608.66C1625 2604.91 1607.42 2581.34 1624.33 2592.1C1641.33 2602.92 1654.02 2625.33 1664.9 2641.53C1681.81 2666.71 1698.67 2692.2 1714.56 2718.01C1731.4 2745.33 1750.08 2770.92 1772.04 2794.37C1804.92 2829.48 1836.7 2865.73 1869.96 2900.45C1893 2924.5 1917.49 2947.14 1940.26 2971.45C1961.16 2993.76 1980.14 3016.89 2003.68 3036.5C2041.31 3067.86 2080.05 3096.7 2116.18 3129.88C2149.13 3160.14 2185.27 3187.19 2218.76 3216.96C2248.42 3243.32 2276.76 3268.3 2311.68 3287.84C2349.64 3309.08 2384.73 3335.09 2424.99 3352.08C2463.78 3368.44 2505.3 3380.99 2546.7 3389.03C2596.68 3398.74 2647.62 3407.69 2698.72 3405.35C2749.1 3403.05 2799.77 3386.4 2847.24 3370.03C2886.11 3356.63 2924.76 3341.55 2962.65 3325.61C3006.62 3307.12 3048.32 3284.21 3090.19 3261.38C3121.91 3244.08 3148.32 3221.52 3174.71 3197.03C3213.47 3161.03 3251.23 3125.98 3276.94 3078.93C3304.3 3028.9 3330.51 2978.4 3363.91 2932.05C3387.43 2899.42 3405.43 2861.43 3422.08 2824.79C3440.08 2785.19 3458.97 2746.01 3476.64 2706.23C3493.68 2667.9 3503.24 2623.49 3512.9 2582.78C3519.14 2556.46 3525 2530.08 3531.2 2503.74C3535.4 2485.89 3540.86 2463.6 3538.55 2445.1C3538.05 2441.14 3534.2 2420.69 3527.12 2424.23C3518.12 2428.73 3510.95 2448.94 3506.14 2456.87C3489.71 2483.95 3476.51 2513.24 3459.04 2539.64C3424.72 2591.52 3384.32 2641.65 3339.43 2684.78C3308.5 2714.5 3280.12 2747.31 3248.03 2775.83C3220.08 2800.68 3188.58 2817.99 3157.69 2838.32C3139.26 2850.44 3118.94 2859.06 3099.51 2869.44C3070.48 2884.96 3041.32 2900.29 3010.91 2913.04C2968.17 2930.97 2921.27 2947.5 2876.15 2958.39C2833.46 2968.7 2792.14 2968.89 2748.85 2972.5C2700.28 2976.55 2650.94 2972.65 2602.42 2969.82C2546.62 2966.56 2490.54 2961.04 2435.02 2954.66C2368.99 2947.07 2302.94 2938.78 2237.3 2928.32C2184.32 2919.87 2130.05 2908.29 2080.04 2888.45C2036.63 2871.22 1991.7 2858.64 1948.89 2839.72C1906.06 2820.79 1864.15 2797.82 1827.41 2768.84C1797.92 2745.57 1766.08 2727.56 1739.28 2700.76C1718.65 2680.13 1703.1 2655.8 1685.19 2632.91C1674.51 2619.27 1661.34 2607.9 1649.05 2595.83C1644.27 2591.15 1615.52 2564.02 1635.52 2582.43C1650.38 2596.1 1659.78 2616.63 1670.03 2633.72C1683.83 2656.72 1696.72 2680.16 1711.07 2702.85C1728.52 2730.46 1745.8 2758.98 1767.72 2783.29C1791.07 2809.19 1815.52 2834.38 1836.74 2862.1C1873.98 2910.74 1914.36 2956.83 1952.27 3004.91C1980.35 3040.53 2013.95 3070.94 2047.28 3101.55C2083.51 3134.82 2117.96 3169.96 2156.16 3201.11C2190.97 3229.49 2223.69 3255.87 2263.18 3277.47C2302.09 3298.75 2344.35 3318.32 2386.52 3332.38C2425.94 3345.51 2466.55 3350.67 2507.41 3356.62C2546.32 3362.3 2584.1 3368.05 2623.64 3368.05C2658.51 3368.05 2691.67 3371.04 2726.46 3365.95C2767.92 3359.88 2811.72 3347.71 2851.43 3334.47C2898.15 3318.9 2943.91 3300.82 2990.16 3284C3041.51 3265.33 3094.58 3241.5 3139.97 3210.67C3181.62 3182.37 3219.57 3154.3 3252.7 3115.77C3272.28 3093 3296.48 3071.95 3313.2 3046.88C3334.4 3015.07 3349.82 2980.25 3367.18 2946.27C3383.13 2915.04 3399.3 2883.9 3415.44 2852.77C3432.38 2820.09 3445.63 2787.45 3458.22 2752.63C3477.55 2699.19 3500.27 2646.74 3520.83 2593.74C3535.31 2556.38 3552.3 2509.74 3552.3 2469C3552.3 2449.93 3547.77 2431.34 3546.12 2412.46C3545.83 2409.09 3547.8 2399.47 3545.54 2396.95C3542.3 2393.35 3531.24 2413.85 3530.39 2415.14C3493.65 2470.24 3460.49 2528.16 3421.04 2581.38C3393.72 2618.22 3368.85 2655.49 3338.26 2689.8C3303.29 2729.02 3277.38 2775.35 3234.51 2807.31C3202.87 2830.9 3163.82 2847.75 3127.38 2862.33C3083.98 2879.69 3042.78 2899.97 2998.32 2914.79C2953.95 2929.58 2908.65 2940.47 2862.86 2950C2812.19 2960.54 2759.91 2970.83 2708.04 2971.45C2591.27 2972.85 2475.23 2984.58 2358.54 2971.45C2303.08 2965.21 2251.16 2951.62 2197.31 2937.99C2129.12 2920.73 2058.4 2913.68 1991.09 2892.64C1938.85 2876.32 1882.7 2860.74 1834.17 2835.05C1792.77 2813.13 1760.48 2783.76 1726.57 2752.17C1698.23 2725.76 1666.26 2700.18 1642.29 2669.75C1631.57 2656.13 1602.56 2613.66 1615.47 2625.21C1645.56 2652.13 1672.47 2684.75 1698.59 2715.68C1744.33 2769.82 1790.64 2823.36 1838.84 2875.39C1881.17 2921.08 1926.43 2963.77 1969.64 3008.64C2007.77 3048.24 2053.07 3079.36 2091.81 3118.1C2120.7 3146.99 2158.13 3172.89 2192.07 3195.51C2217.56 3212.5 2240.27 3233.98 2265.05 3252.17C2285.95 3267.51 2308.85 3277.41 2331.96 3288.78C2407.66 3326.01 2484.77 3360.35 2569.08 3371.08C2666.61 3383.49 2761.07 3360.36 2852.83 3328.99C2917.91 3306.75 2977.92 3282.39 3036.56 3246.34C3076.16 3221.99 3115.19 3200.69 3157.34 3181.29C3204.74 3159.47 3239.56 3128.36 3275.31 3091.18C3310.96 3054.11 3347.18 3014.51 3376.5 2972.15C3433.68 2889.57 3450.09 2790.9 3490.28 2700.87C3513.69 2648.45 3528.96 2589.86 3543.91 2534.51C3553.38 2499.46 3560.7 2468.28 3560.7 2432.04C3560.7 2426.76 3561.75 2420.05 3560.23 2414.91C3557.57 2405.92 3556.38 2413.87 3553.47 2418.4C3516.68 2475.63 3486 2536.25 3448.55 2593.04C3432.3 2617.68 3417.09 2643.23 3396.9 2664.97C3372.33 2691.43 3345.14 2715.73 3318.68 2740.27C3274.68 2781.08 3228.44 2814.65 3176.45 2844.5C3152.77 2858.09 3126.77 2865.22 3101.61 2875.39C3075.53 2885.93 3049.61 2897.13 3023.04 2906.4C2973.38 2923.71 2921.42 2938.62 2869.15 2945.34C2775.45 2957.38 2681.57 2975.43 2587.27 2980.31C2532.8 2983.13 2478.77 2986.3 2424.29 2980.78C2371.16 2975.39 2316.88 2962.21 2265.05 2949.42C2212.11 2936.35 2159.31 2926.43 2106.97 2910.6C2058.52 2895.94 2011.29 2875.19 1964.97 2854.87C1922.12 2836.08 1876.76 2823.77 1833.71 2805.21C1782.55 2783.15 1749.07 2742.89 1707.8 2707.52C1671.89 2676.73 1635.03 2648.82 1609.18 2608.43C1595.38 2586.87 1580.03 2567.17 1564.18 2547.11C1558.52 2539.94 1549.84 2532.64 1545.76 2524.49C1538.09 2509.15 1556.39 2534.14 1558.93 2537.2C1594.37 2579.72 1635.1 2617.13 1671.2 2659.14C1713.61 2708.49 1752.25 2760.17 1798.03 2806.61C1824.78 2833.73 1849.28 2863.02 1876.14 2890.08C1902.58 2916.71 1930.97 2941.45 1956.58 2968.88C1978.04 2991.87 1995.48 3018.02 2020 3038.02C2048.57 3061.31 2075.75 3086.57 2101.25 3113.21C2134.67 3148.11 2170.02 3182.54 2206.06 3214.75C2220.61 3227.75 2234.32 3241.61 2249.19 3254.27C2265.68 3268.31 2284.94 3278.64 2303.28 3289.94C2335.42 3309.74 2371.89 3327.18 2407.5 3339.6C2440.9 3351.25 2473.23 3364.78 2506.83 3375.98C2545.36 3388.82 2585.98 3390.79 2626.44 3391.13C2667.29 3391.47 2707.89 3388.33 2748.38 3383.9C2798.09 3378.47 2841.45 3363.9 2886.64 3342.87C2907.01 3333.39 2926.19 3321.19 2947.49 3313.84C2966.3 3307.35 2985.58 3301.94 3004.5 3295.77C3041.1 3283.84 3079.2 3264.19 3111.99 3244.01C3149.53 3220.91 3185.28 3194.32 3221.22 3168.7C3243.85 3152.57 3266.32 3138.71 3287.2 3119.97C3306.39 3102.76 3323.01 3082.66 3339.31 3062.73C3371.52 3023.36 3399.06 2980.88 3424.77 2936.94C3445.97 2900.69 3455.26 2861.79 3468.37 2822.46C3481.75 2782.31 3493.59 2741.82 3506.25 2701.45C3521.81 2651.88 3540.42 2598.61 3545.89 2546.64C3550.77 2500.29 3561.47 2456.97 3570.72 2411.41C3576 2385.4 3576.14 2363.3 3575.38 2337.73C3575.26 2333.54 3575.38 2329.33 3575.38 2325.14C3575.38 2318.52 3576.74 2320.25 3574.22 2324.21C3564.36 2339.71 3559.78 2360.54 3553.47 2377.6C3534.06 2430.1 3513.69 2481.94 3489.35 2532.42C3477 2558.03 3461.01 2581.99 3446.33 2606.33C3430.51 2632.56 3415.21 2657.85 3396.09 2681.87C3376.13 2706.93 3356.18 2732.07 3335.7 2756.71C3320.17 2775.41 3302.98 2796.87 3283.59 2811.85C3250.74 2837.24 3213.1 2856.74 3177.62 2878.19C3135.28 2903.78 3089.73 2924.3 3043.67 2942.07C2997.57 2959.86 2950.09 2970.09 2901.8 2979.84C2869.56 2986.36 2837.63 2992.5 2805.97 3001.53C2769.92 3011.8 2733.34 3022.49 2695.92 3026.01C2628.58 3032.34 2563.84 3033.87 2496.69 3024.96C2430.26 3016.15 2365.76 2996.51 2299.09 2987.77C2230.68 2978.8 2161.3 2968.01 2096.01 2945.34C2067.07 2935.29 2037.43 2927.04 2008.92 2915.73C1983.16 2905.5 1958.3 2893 1932.68 2882.38C1881.51 2861.18 1829.48 2837.27 1781.25 2809.87C1734.61 2783.38 1692.55 2748.09 1654.41 2710.31C1637.99 2694.05 1623.78 2678.12 1611.28 2658.67C1599.92 2641.01 1591.33 2621.53 1578.87 2604.58C1576.52 2601.39 1567.44 2592.88 1567.44 2588.49C1567.44 2585.86 1587.77 2601.71 1589.36 2603.3C1609.73 2623.67 1627.56 2646.65 1646.48 2668.35C1668.63 2693.73 1693.16 2716.69 1714.56 2742.72C1757.01 2794.37 1804.18 2841.15 1846.53 2892.99C1929.22 2994.21 2015.74 3092.21 2122.82 3168.7C2139.85 3180.86 2158.15 3190.96 2175.63 3202.39C2197.3 3216.56 2217.44 3233.35 2238.58 3248.32C2276.37 3275.09 2321.02 3290.84 2362.97 3309.76C2416.7 3333.99 2468.27 3362.29 2525.13 3378.54C2574.55 3392.66 2629.83 3406.57 2681.46 3407.8C2729.49 3408.94 2776.77 3405.25 2824.16 3397.43C2881.47 3387.96 2932.19 3363.34 2983.63 3337.62C3031.07 3313.9 3076.44 3281.2 3117 3247.27C3143.36 3225.23 3171.07 3203.23 3195.57 3179.19C3229.99 3145.43 3255.47 3104.21 3284.64 3065.99C3296.49 3050.47 3310.87 3037.36 3322.53 3021.81C3334.54 3005.8 3346.49 2989.47 3360.18 2974.83C3389.1 2943.92 3410.96 2912.76 3431.06 2875.39C3468.19 2806.36 3503.23 2742.58 3518.73 2665.08" stroke="white" stroke-width="30.1522" stroke-linecap="round"/>
<path d="M2036.78 2318.3C2028.52 2314.41 2025.51 2316.1 2018.38 2318.14C2001.45 2322.98 2005.82 2320.61 2015.57 2302.08C2105.52 2131.18 2200.01 1963.49 2304.37 1800.88C2368.5 1700.97 2433.43 1600.06 2503.2 1503.97C2504.34 1502.41 2552.85 1441.46 2523.94 1466.85C2496 1491.4 2471.49 1520.67 2447.84 1549.19C2398.02 1609.3 2350.01 1670.84 2307.65 1736.48C2206 1894 2117.91 2058.51 2025.4 2221.3C2000.46 2265.18 1975.28 2309.3 1948.83 2352.29C1937.3 2371.03 1957.48 2326.43 1958.34 2324.85C2001.79 2244.5 2053.85 2167.08 2102.27 2089.69C2169.36 1982.46 2240.95 1877.54 2316.07 1775.77C2370.87 1701.55 2427.87 1628.56 2486.67 1557.46C2524.64 1511.55 2566.5 1468.88 2602.85 1421.63C2622.38 1396.24 2591.69 1424.58 2585.38 1429.9C2530.69 1475.95 2484.81 1531.19 2440.36 1586.93C2308.01 1752.85 2192.99 1937.42 2093.54 2124.77C2065.4 2177.79 2038.18 2232.04 2004.97 2282.12C1990.4 2304.08 2008.64 2276.29 2011.98 2270.42C2080.41 2150.15 2144.79 2027.63 2214.4 1908.01C2290.65 1776.97 2372.96 1649.63 2458.13 1524.24C2496.51 1467.74 2537.29 1413.79 2578.05 1359.1C2580.14 1356.3 2586.71 1347.76 2578.83 1354.58C2558.68 1372 2539.95 1391.29 2521.76 1410.72C2357.63 1585.98 2214.35 1786.22 2096.97 1995.5C2055.11 2070.13 2012.75 2146.34 1978.92 2225.04C1978.84 2225.23 1955.86 2276.4 1970.66 2259.04C1994.22 2231.4 2011.79 2196.72 2030.85 2166.1C2091.85 2068.13 2150.06 1968.46 2210.97 1870.43C2284.51 1752.08 2364.22 1638.72 2445.35 1525.49C2463.62 1499.98 2481.81 1474.35 2501.64 1450.01C2508.47 1441.63 2522.3 1419.79 2533.3 1415.08C2540.51 1411.99 2524.58 1428.13 2519.89 1434.42C2501.93 1458.45 2483.08 1481.78 2464.37 1505.22C2377.89 1613.57 2297.21 1725.85 2221.1 1841.74C2141.8 1962.48 2066.12 2086.45 1998.73 2214.28C1972.5 2264.04 1941.93 2317.49 1927 2372.25C1924.69 2380.71 1947.87 2337.67 1949.45 2334.83C1994.44 2253.65 2041.35 2173.49 2086.68 2092.49C2158.68 1963.83 2230.87 1834.78 2309.68 1710.12C2359.74 1630.93 2415.94 1555.89 2470.3 1479.64C2476.09 1471.51 2481.96 1460.54 2489.01 1453.13C2495.28 1446.55 2480.23 1469.1 2474.98 1476.52C2423.79 1548.73 2365.18 1615.57 2312.33 1686.58C2237.65 1786.9 2165.76 1889.3 2095.41 1992.69C2037.44 2077.91 1979.73 2163.43 1929.65 2253.58C1913.62 2282.43 1897.1 2310.91 1880.37 2339.35C1872.27 2353.11 1888.96 2318.12 1889.57 2317.05C2002.49 2120.27 2131.48 1933.27 2264.14 1749.42C2329.2 1659.27 2536.53 1398.14 2464.06 1482.45C2291.99 1682.61 2150.29 1910.9 2018.85 2139.12C1977.28 2211.28 1939.75 2285.25 1903.6 2360.24C1895.25 2377.58 1886.56 2395.01 1879.9 2413.11C1875.83 2424.17 1878.72 2422.04 1883.64 2415.29C1916.65 2370.07 1941.41 2316.72 1970.35 2268.86C2037.36 2158.04 2100.58 2045.04 2168.39 1934.68C2235.18 1826.01 2301.39 1716.9 2373.61 1611.72C2402.41 1569.79 2436.55 1527.63 2458.76 1481.51C2469.95 1458.26 2421.16 1516.96 2404.02 1536.25C2327.82 1622.04 2263.19 1716.88 2196.78 1810.24" stroke="white" stroke-width="30.1522" stroke-linecap="round"/>
<path d="M1784.16 1689.54C1875.28 1779.89 1972.48 1863.4 2066.1 1951.05C2118.56 2000.17 2168.81 2051.84 2215.8 2106.22C2259.54 2156.82 2298.56 2211.21 2341.49 2262.47C2358.75 2283.08 2376.12 2303.62 2393.58 2324.07C2393.63 2324.13 2403.48 2334.18 2395.14 2329.84C2379.78 2321.85 2365.41 2310.36 2352.25 2299.43C2220.42 2189.83 2108.79 2054.87 1994.68 1927.51C1924.01 1848.62 1851.42 1764.11 1797.72 1672.23C1791.88 1662.23 1784.93 1650.99 1780.42 1640.26C1774.3 1625.73 1804.67 1660.46 1815.97 1671.45C1864.13 1718.28 1909.71 1767.53 1956.01 1816.16C2019.39 1882.75 2085.95 1946.24 2150.15 2012.03C2233.34 2097.27 2309.77 2190.54 2399.19 2269.33C2404.83 2274.3 2410.39 2279.35 2416.03 2284.3C2418.49 2286.46 2425.98 2289.7 2423.05 2291.16C2413.73 2295.82 2375.51 2266.63 2369.25 2262.63C2244.46 2182.76 2132.02 2081.66 2028.99 1975.85C1945.32 1889.93 1864.78 1792.39 1803.81 1688.6C1802.27 1685.99 1777.68 1641.52 1795.07 1658.35C1907.4 1767.06 2018.33 1877.58 2127.23 1989.73C2228.53 2094.06 2315.09 2210.96 2417.28 2314.24C2435.19 2332.34 2417.98 2320.47 2405.9 2312.68C2305.44 2247.98 2217.4 2162.81 2140.02 2072.22C2076.71 1998.1 2018.83 1919.49 1955.23 1845.48C1910.64 1793.6 1864.8 1742.71 1824.08 1687.67C1812.19 1671.6 1800.63 1655.25 1790.4 1638.08C1786.31 1631.22 1790.69 1634.5 1794.45 1637.46C1884.48 1708.07 1961.57 1796.54 2044.42 1875.27C2103.5 1931.4 2162.18 1987.54 2217.99 2046.96C2274.24 2106.86 2325.57 2170.85 2380.79 2231.59C2396.64 2249.03 2413.88 2265.42 2428.82 2283.68C2434.18 2290.23 2400.12 2268.5 2397.94 2266.84C2353.36 2232.8 2313.57 2192.7 2272.88 2154.25C2202.37 2087.61 2128.76 2024.18 2059.24 1956.51C2003.05 1901.82 1952.2 1841.22 1909.85 1775.15C1878.79 1726.71 1852.52 1675.07 1824.23 1624.98C1820.28 1617.99 1792.36 1579.55 1814.1 1601.59C1841.25 1629.12 1866.73 1658.1 1891.45 1687.82C1950.97 1759.42 2012.35 1829.12 2073.74 1899.13C2183.77 2024.61 2285.62 2156.9 2397.32 2280.87C2418.64 2304.53 2440.11 2328.28 2459.54 2353.54C2466.32 2362.35 2451.12 2348.17 2450.18 2347.3C2379.5 2281.18 2312.75 2211.29 2244.5 2142.71C2126.4 2024.04 2008.6 1905.08 1923.73 1759.4C1910.05 1735.94 1896.1 1713.01 1878.35 1692.35C1865.03 1676.85 1850.47 1662.68 1838.74 1645.88C1838 1644.82 1832.23 1638.48 1834.06 1639.48C1863.91 1655.77 1888.15 1697.15 1909.22 1722.13C2026.06 1860.61 2150.81 1992.08 2261.34 2135.85C2288.91 2171.71 2315.4 2208.85 2347.11 2241.26C2349.87 2244.09 2362.55 2253.58 2359.58 2256.54" stroke="white" stroke-width="30.1522" stroke-linecap="round"/>
<path d="M2836.76 2203.21C2849.54 2209.6 2893.03 2119.47 2896.48 2113.23C2958.25 2001.68 3016.43 1888.57 3080.81 1778.43C3128.05 1697.59 3176.79 1617.97 3228.8 1540.15C3233.68 1532.84 3268.28 1483 3242.52 1515.2C3209.57 1556.38 3183.76 1602.36 3156.13 1647.12C3103.01 1733.15 3058.88 1821.65 3017.81 1913.94C2980.11 1998.64 2946.08 2084.92 2903.19 2167.19C2892.2 2188.26 2881.99 2210.09 2869.51 2230.35C2864.57 2238.36 2865.16 2234.85 2868.1 2228.79C2966.62 2025.6 3071.28 1826.76 3195.11 1637.46C3224.85 1591.99 3319.3 1459.21 3289.92 1504.9C3237.26 1586.82 3182.31 1666.36 3133.36 1750.67C3072.84 1854.89 3013.11 1958.38 2962.13 2067.7C2943.58 2107.5 2924.4 2147.23 2907.87 2187.93C2902.9 2200.15 2891.39 2220.5 2892.12 2234.4C2892.51 2241.86 2904.45 2228.56 2904.75 2228.16C2925.71 2200.11 2941.33 2166.25 2956.83 2135.07C3031.14 1985.62 3106.93 1836.45 3187.63 1690.32C3235.11 1604.34 3287.9 1521.37 3339.51 1437.85C3364.88 1396.81 3291.07 1521.32 3265.6 1562.29C3197.25 1672.21 3135.78 1786.12 3073.63 1899.59C3040.53 1960.02 3009.62 2020.52 2984.28 2084.7C2973.72 2111.43 2955.65 2159.82 2945.92 2187.93C2941.95 2199.39 2927.77 2229.81 2938.12 2223.48C2945.22 2219.14 2950.11 2209.54 2954.18 2202.74C2975.11 2167.86 2992.19 2130.93 3009.23 2094.05C3071.46 1959.34 3129.95 1822.52 3195.11 1689.23C3225.75 1626.55 3328.91 1444.39 3293.67 1504.59C3252.32 1575.23 3216.6 1650.53 3181.7 1724.47C3120.7 1853.72 3053.19 1979.88 2997.07 2111.36C2973.56 2166.43 2949.92 2221.42 2925.02 2275.88C2913.57 2300.93 2899.55 2325.58 2889.78 2351.36C2867.54 2409.98 2944.26 2238.39 2969.31 2180.91C3041.44 2015.39 3125.29 1851.54 3218.04 1696.56C3244.29 1652.68 3270.9 1608.98 3297.41 1565.25C3311 1542.84 3328.95 1520.31 3339.51 1496.17C3357.84 1454.29 3285.73 1570.14 3260.3 1608.14C3188.1 1716 3127.06 1830.82 3068.49 1946.53C3040.88 2001.07 3015.46 2056.5 2992.7 2113.23C2981.05 2142.26 2969.47 2170.42 2954.65 2197.6" stroke="white" stroke-width="30.1522" stroke-linecap="round"/>
<path d="M2749.74 1849.54C2743.18 1842.97 2735.97 1837.01 2729.47 1830.51C2702.38 1803.42 2794.95 1870.29 2827.56 1890.39C2917.54 1945.87 3009.6 1997.91 3099.99 2052.73C3171.32 2095.99 3244.8 2136.02 3314.25 2182.32C3316.89 2184.07 3359.7 2213.41 3341.39 2205.4C3272.37 2175.2 3203.23 2139.5 3138.19 2101.69C3027.26 2037.21 2923.15 1954.55 2833.02 1863.26C2817.42 1847.46 2801.93 1831.55 2786.23 1815.85C2783.38 1813 2770.13 1798.29 2770.33 1798.39C2780.79 1803.62 2790.7 1812.44 2800.11 1819.13C2835.47 1844.23 2870.68 1869.57 2906.31 1894.29C3014.31 1969.24 3123.22 2042.89 3231.29 2117.76C3279.82 2151.37 3324.82 2187.42 3368.83 2226.6C3394.77 2249.7 3345.21 2220.84 3339.98 2217.87C3171.79 2122.15 3025.67 1996.11 2869.19 1883.53C2836.81 1860.23 2742.22 1787.9 2777.34 1806.81C2788.14 1812.62 2798.26 1820.62 2808.53 1827.24C2864.65 1863.39 2922.31 1897.32 2979.6 1931.56C3079.74 1991.42 3182.25 2048.68 3279.01 2114.01C3322.56 2143.42 3369.44 2177.73 3402.67 2219.27C3418.03 2238.47 3358.73 2197.13 3337.64 2184.5C3226.72 2118.07 3115.24 2052.96 3010.79 1976.47C2944.49 1927.93 2872.31 1876.99 2818.67 1813.98C2818.46 1813.74 2802.38 1795.03 2804.95 1792.46C2807.44 1789.97 2841.7 1813.05 2842.22 1813.36C2941.77 1873.62 3040.26 1936.91 3137.73 2000.49C3210.3 2047.83 3284.75 2096.72 3348.09 2156.27C3351.56 2159.54 3384.13 2192.75 3374.91 2186.99C3317.73 2151.25 3262.31 2111.37 3206.03 2074.09C3113.82 2013.02 3019.33 1955.49 2928.76 1891.95C2903.33 1874.11 2877.35 1856.46 2853.29 1836.75C2847.35 1831.89 2840.52 1822.07 2833.17 1819.13C2827.86 1817 2842.67 1825.52 2847.36 1828.8C2881.82 1852.82 2915.21 1878.35 2949.66 1902.4C3069.91 1986.35 3194.4 2064.33 3316.12 2146.14C3363.49 2177.97 3407.93 2213.5 3456.47 2243.6C3461.72 2246.86 3483.55 2256.25 3471.13 2259.35" stroke="white" stroke-width="30.1522" stroke-linecap="round"/>
<path d="M2669.03 2803.47C2686.07 2906.68 2697.92 3009.76 2707.78 3113.92C2715.9 3199.63 2725.09 3285.4 2736.57 3370.72C2744.27 3427.97 2751.7 3485.96 2753.59 3543.76C2753.89 3552.74 2753.98 3575.08 2753.7 3552.94C2753.21 3513.63 2746.13 3472.07 2740.26 3433.33C2717.4 3282.33 2693.28 3131.69 2676.31 2979.86C2670.63 2929.01 2666.73 2877.61 2663.43 2826.54C2662.64 2814.3 2657.93 2778.04 2661.42 2789.8C2667.8 2811.35 2668.34 2836.53 2670.04 2858.68C2675.38 2928.09 2679.78 2997.59 2685.27 3066.99C2691.9 3150.65 2696.52 3234.21 2704.87 3317.75C2710.9 3378.05 2717.73 3438.09 2724.58 3498.29C2724.66 3498.95 2727.4 3520.49 2726.26 3512.96C2723.04 3491.69 2718.58 3470.64 2715.51 3449.35C2703.25 3364.14 2695.55 3278.4 2687.18 3192.76C2678.74 3106.44 2669.83 3020.23 2662.09 2933.83C2657.68 2884.57 2658.6 2832.48 2648.87 2783.87C2640.44 2741.71 2648.64 2870 2652.91 2912.77C2670.69 3091.12 2684.5 3270.22 2707.34 3448C2714.16 3501.11 2721.11 3554.96 2731.08 3607.6C2734.9 3627.77 2732.64 3622.24 2729.51 3606.92C2696.64 3445.83 2673.33 3282.83 2658.95 3119.07C2652.15 3041.6 2648.84 2964.66 2646.41 2887.01C2645.67 2863.35 2644.75 2840.1 2646.41 2816.46C2646.5 2815.18 2647.46 2798.49 2648.43 2802.35C2657.53 2838.77 2655.79 2880.25 2659.07 2917.48C2668.12 3020.51 2676.92 3123.9 2688.3 3226.7C2698.46 3318.51 2709.57 3410.05 2721.45 3501.65C2724.83 3527.69 2729.3 3553.94 2729.51 3580.27C2729.57 3587.91 2730.4 3592.95 2723.46 3595.72" stroke="white" stroke-width="30.1522" stroke-linecap="round"/>
<path d="M2374.71 2813.55C2382.75 2849.73 2384.07 2888.99 2386.92 2925.77C2394.88 3028.54 2397.34 3131.67 2401.82 3234.65C2407.44 3363.9 2426.78 3751.51 2418.95 3622.38C2414.96 3556.52 2409.68 3490.04 2402.94 3424.37C2397.08 3367.34 2392.09 3310.19 2385.47 3253.24C2378.49 3193.26 2369.35 3133.3 2363.96 3073.15C2357.58 3001.84 2354.55 2930.69 2354.55 2859.13C2354.55 2856.2 2356.74 2832.86 2357.58 2835.05C2362.39 2847.57 2363.78 2864.42 2365.53 2877.61C2392.71 3082.7 2387.82 3290.92 2403.94 3496.95C2404.06 3498.45 2407.2 3535.63 2406.97 3523.15C2406.5 3498.09 2402.14 3472.41 2400.02 3447.44C2387.71 3302.15 2377.94 3156.2 2374.27 3010.44C2373.03 2961.49 2370.68 2912.7 2370.68 2863.72C2370.68 2837.36 2372.7 2811.08 2372.7 2784.76C2372.7 2776.63 2372.51 2778.66 2373.82 2785.21C2379.38 2813.01 2379.76 2842.73 2381.66 2870.89C2397.24 3101.83 2396.64 3333.85 2421.08 3564.14C2422.12 3573.92 2425.11 3603.21 2425.11 3593.37C2425.11 3576.89 2423.25 3560.53 2422.09 3544.1C2413.02 3416.18 2400.21 3288.51 2391.74 3160.51C2385.38 3064.48 2378.93 2968.36 2376.84 2872.12C2376.62 2861.76 2378.75 2830.74 2378.75 2841.1C2378.75 2854.89 2380.89 2868.1 2382.78 2881.75C2415.2 3115.63 2431.65 3351.88 2449.3 3587.21C2450.13 3598.29 2452.37 3631.52 2451.21 3620.48C2448.6 3595.73 2444.23 3571.02 2441.02 3546.34C2422.57 3404.66 2407.85 3262.6 2390.06 3120.86C2378.72 3030.49 2372.67 2940.15 2364.19 2849.61C2363.42 2841.41 2363.22 2838.32 2364.75 2848.49C2369.08 2877.37 2374.36 2906.17 2379.31 2934.95C2410.61 3117.04 2477.83 3667.02 2443.26 3485.52C2420.9 3368.17 2414.4 3249.15 2409.99 3130.05C2407.55 3064.21 2408.16 2998.87 2408.87 2933.05C2409.18 2904 2407.2 2873.41 2412.01 2844.57C2413.5 2835.65 2415.01 2857.77 2415.03 2859.24C2415.7 2900.45 2417.46 2941.7 2419.06 2982.88C2423.81 3105.11 2425.7 3227.51 2429.14 3349.78" stroke="white" stroke-width="30.1522" stroke-linecap="round"/>
<path d="M3618.54 2400.28C3614.29 2409.83 3611.45 2421.4 3608.46 2431.41C3592.34 2485.45 3575.15 2539.24 3555.26 2592.02C3528.66 2662.59 3499.47 2732.16 3471.6 2802.23C3449.57 2857.63 3431.26 2914.35 3406.87 2968.77" stroke="white" stroke-width="30.1522" stroke-linecap="round"/>
<path d="M3624.59 2464.79C3571.69 2583.05 3531.31 2706.32 3463.32 2817.58" stroke="white" stroke-width="30.1522" stroke-linecap="round"/>
<path d="M1604.63 2648.24C1633.39 2682.53 1658.63 2720.1 1685.05 2756.2C1711.44 2792.26 1736.87 2828.82 1764.11 2864.28C1831.56 2952.06 1912.29 3023.4 1993.71 3097.79" stroke="white" stroke-width="30.1522" stroke-linecap="round"/>
<path d="M1830.42 2751.05C1782.78 2707.26 1734.27 2664.34 1691.88 2615.31C1664.68 2583.86 1641.2 2549.51 1612.7 2519.22" stroke="white" stroke-width="30.1522" stroke-linecap="round"/>
<path d="M1790.1 2827.66C1732.64 2773.1 1672.01 2719.33 1623.45 2656.3C1592.99 2616.78 1568.03 2573.85 1542.14 2531.32" stroke="white" stroke-width="30.1522" stroke-linecap="round"/>
<path d="M1810.25 2853.87C1765 2814.43 1716.51 2777.37 1674.07 2734.93C1617.6 2678.46 1575.44 2610.28 1521.98 2551.48" stroke="white" stroke-width="30.1522" stroke-linecap="round"/>
<path d="M3048.37 2676.86C3044.76 2676.06 3044.5 2670.74 3047.54 2674.24C3059 2687.47 3069.2 2700.36 3082.48 2712.16C3160.6 2781.61 3243.83 2844.9 3320.98 2915.61C3363.07 2954.17 3403.69 2994.38 3443.93 3034.86C3473.43 3064.54 3502.83 3094 3536.83 3118.57C3555.06 3131.75 3574.31 3144.73 3594.9 3153.99C3599.12 3155.89 3587.58 3147.11 3586.68 3146.48C3567.53 3133.05 3547.24 3121.67 3528.48 3107.6C3491.82 3080.11 3455.71 3051.28 3420.68 3021.74C3372 2980.7 3324.02 2938.46 3280.79 2891.64C3248.24 2856.37 3220.36 2817.9 3190.04 2780.85C3155.42 2738.53 3115.51 2700.9 3080.09 2659.21C3073.38 2651.31 3064.98 2643.88 3059.22 2635.24C3056.67 2631.42 3060.72 2637.31 3061.25 2638.22C3069.55 2652.46 3084 2665.03 3095.47 2676.5C3132.16 2713.19 3171.44 2747.31 3208.88 2783.24C3254.46 2826.96 3301.8 2868.68 3346.74 2913.1C3391.23 2957.07 3434.17 3002.55 3478.39 3046.78C3513.21 3081.6 3548.63 3115.69 3586.91 3146.72C3599.24 3156.71 3613.58 3170.09 3628.65 3176.05C3655.14 3186.52 3584.27 3140.25 3560.68 3124.3C3520.45 3097.09 3483.57 3066 3446.08 3035.22C3389.53 2988.79 3332.89 2942.42 3281.15 2890.56C3232.94 2842.24 3189.13 2790.16 3146.75 2736.73C3129.11 2714.48 3112.96 2690.33 3093.92 2669.23C3085.26 2659.63 3075.07 2651.37 3065.54 2642.64C3063.51 2640.78 3055.97 2633.05 3053.14 2632.74C3052.11 2632.62 3053.69 2634.79 3054.33 2635.6C3060.16 2642.98 3066.51 2650.01 3072.58 2657.19C3105.07 2695.64 3139.87 2732.05 3173.35 2769.64C3257.27 2863.9 3348.41 2953.02 3438.8 3041.06C3490.39 3091.31 3543.87 3139.51 3596.57 3188.57C3602.35 3193.95 3622.48 3203.96 3614.58 3203.96C3606.74 3203.96 3590.28 3188.03 3584.41 3184.04C3549.12 3160.06 3515.04 3133.58 3481.97 3106.65C3375.87 3020.23 3267.51 2930.74 3177.64 2827.12C3129.01 2771.05 3005.53 2585.21 3049.32 2645.14C3059.52 2659.1 3074.1 2671.43 3085.7 2684.14C3117.61 2719.11 3152.2 2751.51 3185.27 2785.38C3225.72 2826.8 3268.71 2865.08 3310.61 2904.99C3359.33 2951.41 3406.44 2999.27 3453.59 3047.26C3486.5 3080.75 3520.86 3112.51 3557.94 3141.35C3577.04 3156.21 3597.1 3169.91 3615.53 3185.59C3635.42 3202.51 3614.01 3186.29 3606.71 3179.87C3579.53 3155.97 3548.66 3136.72 3520.49 3114.04C3473.4 3076.14 3426.98 3036.41 3382.28 2995.74C3331.58 2949.62 3282.95 2901.51 3238.46 2849.3C3210.37 2816.34 3187.6 2778.67 3156.17 2748.65C3125.6 2719.45 3086.51 2691.21 3064.35 2654.68C3063.17 2652.74 3057.41 2644.32 3062.44 2650.27C3076.89 2667.35 3092.27 2683.57 3108.47 2699.04C3186.81 2773.87 3274.82 2838.06 3352.94 2913.22C3397.59 2956.18 3449.48 2995.9 3486.27 3046.07" stroke="white" stroke-width="30.1522" stroke-linecap="round"/>
<path d="M2924.73 2744.08C2937.84 2834.16 2973.97 2919.95 3003.95 3005.29C3029.29 3077.4 3054.64 3149.49 3079.93 3221.61C3088.45 3245.9 3097.07 3269.8 3104.34 3294.51C3107.28 3304.51 3114.65 3314.39 3115.27 3324.9C3115.36 3326.42 3112.37 3316.2 3111.51 3314.32C3102.07 3293.55 3096.5 3270.63 3088.98 3249.1C3056.06 3154.9 3012.33 3065.11 2980.05 2970.81C2956.89 2903.14 2943.44 2834.98 2935.32 2764.22C2933.67 2749.87 2930.88 2735.86 2930.88 2721.37C2930.88 2720.4 2931.51 2709.19 2931.56 2709.25C2941.21 2719.97 2945.12 2744.9 2949.32 2757.74C2967.27 2812.64 2980.53 2868.91 2998.49 2923.86C3033.26 3030.25 3059.24 3139.39 3092.22 3246.37C3115.97 3323.42 3142.34 3400.04 3169.9 3475.83C3170.37 3477.11 3182.42 3502.22 3176.73 3490.85C3166.79 3470.97 3157.65 3451.08 3148.9 3430.58C3108.73 3336.5 3059.65 3246.95 3015.22 3154.85C2973.13 3067.61 2941.51 2979.36 2918.93 2885.27C2914.71 2867.7 2911.2 2849.96 2908 2832.17C2906.69 2824.87 2901.05 2804.73 2906.3 2809.98C2909.59 2813.27 2912.4 2828.33 2913.81 2832.52C2927.85 2874.25 2940.26 2916.49 2953.93 2958.34C2986.97 3059.5 3035.49 3154.53 3072.25 3254.22C3090.38 3303.4 3108.25 3353.34 3129.27 3401.39C3134.19 3412.64 3143.68 3430.27 3130.46 3410.44C3118.58 3392.61 3112.31 3369.65 3104.17 3350C3078.63 3288.33 3053.82 3226.18 3030.25 3163.73C2992.5 3063.77 2961.73 2961.9 2935.83 2858.3C2926.08 2819.28 2913.56 2773.56 2912.44 2733.15C2911.84 2711.46 2920.24 2742.83 2922.17 2749.03C2987.01 2956.5 3021.75 3173.07 3090.51 3379.37C3097.65 3400.78 3114.93 3465.11 3114.93 3442.54C3114.93 3432.12 3107.98 3419.36 3104.17 3410.1C3085.41 3364.42 3074.04 3316.09 3057.56 3269.59C3016.96 3155.01 2965.29 3045.78 2934.47 2927.61C2926.25 2896.11 2915.51 2857.05 2915.51 2823.98C2915.51 2820.5 2915.85 2816.95 2918.59 2822.27C2926.35 2837.36 2930.91 2853.99 2936 2870.08C2968.04 2971.3 2994.53 3074.16 3027.86 3175C3058.43 3267.52 3155.3 3543.35 3124.49 3450.9" stroke="white" stroke-width="30.1522" stroke-linecap="round"/>
<path d="M1368.97 2125.73C1728.2 2059.1 2115.79 2036.43 2491.01 2012.96C2630.58 2004.23 2772.12 1993.5 2910.81 1980.9C3007.76 1972.09 3107.18 1965.15 3202.93 1952.93C3214.18 1951.49 3261.06 1944.56 3270.45 1950.27C3278.3 1955.04 3261.61 1959.91 3253.8 1961.54C3226.32 1967.25 3193.19 1968.19 3164.24 1970.2C3061.77 1977.31 2958.82 1982.74 2856.06 1988.27C2651.66 1999.29 2449.09 2017.58 2245.41 2032.25C2130.3 2040.54 2014.25 2049.37 1899.69 2059.89C1836.51 2065.69 1771.88 2072.56 1710.12 2082.02C1707.27 2082.45 1648.48 2093.97 1665.84 2097.52C1701.13 2104.73 1729.94 2103.98 1768.58 2100.16C1923.14 2084.88 2076.01 2063.77 2229.33 2045.26C2544.56 2007.21 2860.88 1970.54 3181.79 1951.5C3234.93 1948.34 3394.94 1943.95 3341.61 1945.1C3235.38 1947.38 3122.19 1961.56 3018.06 1972.53C2640.64 2012.32 2266.23 2060.55 1889.52 2102.28C1783.29 2114.05 1674.65 2125.18 1566.48 2128.76C1551.16 2129.27 1536.42 2131.63 1521.15 2132.16C1515.79 2132.35 1500.05 2131.73 1505.06 2132.64C1533.9 2137.89 1562.73 2138.7 1593.59 2137.88C1733.3 2134.17 1874.95 2111 2009.94 2092.55C2391.08 2040.46 2778.12 2012.64 3167.86 1991.28C3280.52 1985.1 3395.09 1976.38 3507.97 1973.05C3526.7 1972.5 3545.77 1973.06 3517.9 1967.99" stroke="#E5006D" stroke-width="30.1522" stroke-linecap="round"/>
<path d="M3590.07 1903.66C3229.49 1962.55 2841.51 1976.89 2465.87 1992.29C2326.14 1998.02 2184.4 2005.71 2045.48 2015.33C1948.36 2022.05 1848.81 2026.86 1752.82 2037.02C1741.54 2038.21 1694.52 2044.14 1685.26 2038.23C1677.52 2033.29 1694.3 2028.77 1702.15 2027.32C1729.74 2022.19 1762.89 2021.97 1791.87 2020.58C1894.47 2015.67 1997.52 2012.46 2100.37 2009.13C2304.96 2002.51 2507.88 1988.58 2711.82 1978.28C2827.08 1972.46 2943.3 1966.13 3058.05 1958.08C3121.35 1953.63 3186.11 1948.16 3248.06 1940.03C3250.91 1939.65 3309.94 1929.4 3292.66 1925.48C3257.54 1917.51 3228.71 1917.64 3190 1920.63C3035.15 1932.58 2881.86 1950.41 2728.18 1965.62C2412.2 1996.9 2095.17 2026.75 1773.93 2038.9C1720.73 2040.91 1560.66 2041.87 1614.01 2041.87C1720.25 2041.87 1833.73 2030.13 1938.07 2021.39C2316.26 1989.72 2691.62 1949.54 3069.14 1915.91C3175.6 1906.43 3284.45 1897.64 3392.68 1896.38C3407.99 1896.2 3422.79 1894.16 3438.07 1893.96C3443.43 1893.88 3459.15 1894.84 3454.16 1893.82C3425.44 1887.96 3396.63 1886.53 3365.76 1886.68C3226 1887.39 3083.89 1907.51 2948.54 1923.05C2566.37 1966.95 2178.82 1986.45 1788.71 1999.43C1675.94 2003.19 1561.21 2009.44 1448.28 2010.34C1429.54 2010.49 1410.49 2009.52 1438.25 2015.19" stroke="#E5006D" stroke-width="30.1522" stroke-linecap="round"/>
</g>
<defs>
<clipPath id="clip0_3848_2497">
<rect width="5000" height="5000" fill="white"/>
</clipPath>
</defs>
</svg>
