<svg width="5000" height="5000" viewBox="0 0 5000 5000" fill="none" xmlns="http://www.w3.org/2000/svg">
<g clip-path="url(#clip0_3848_2523)">
<path fill-rule="evenodd" clip-rule="evenodd" d="M1704.2 2892.1L1131.6 3840.2H3868.5L2982.5 2294.8L3049.6 2245L4011.8 3923.2H988L1627.8 2858.5L1704.2 2892.1ZM1974.3 2183.3L2503.4 1292.3L2725.9 1677.7L2680.3 1765L2503.2 1458.9L2017.3 2275L1974.3 2183.3Z" fill="white"/>
<path d="M3061.6 2846.8C3061.3 2833.7 3060.9 2819.9 3059.5 2802.5C3050 2684.3 2982 2551.4 2891.9 2466.6C2906.5 2518.2 2913.8 2548.2 2908.3 2562C2891.9 2536.2 2844.8 2486.2 2765.4 2495.8C2767.8 2523.5 2772.1 2545.7 2774.1 2572.1C2755.3 2575.5 2678.2 2562.1 2632.9 2562.1C2693.1 2576 2743.7 2587.7 2796.4 2599.8C2803.2 2586.8 2807.6 2570.8 2817.8 2551.2C2853.5 2561.7 2894.7 2599.4 2918.3 2629.9C2927.3 2617.6 2930.7 2607.5 2930.7 2594.1C2980.1 2660.9 3016 2728.4 3024.4 2819C2860 2792 2968.5 2671.4 2796.4 2661.9C2788.5 2780.8 2905.4 2759.5 2891.9 2802.6C2802.2 2748.8 2603.1 2758.3 2443.8 2833.7C2533.5 2715.7 2646.5 2702.2 2680.5 2681.2C2521.6 2623.6 2375.2 2653.2 2220.6 2723.3C2242.3 2687.5 2255.7 2665.5 2273.6 2635.9C2191.2 2654.4 2117.2 2671 2043.2 2687.6C2041.7 2684.2 2040.1 2680.9 2038.6 2677.5C2084.3 2650.7 2130 2624 2178.3 2595.7C2104.3 2555 2034 2510.2 1958.7 2476.9C1884.9 2444.3 1805.9 2423.4 1727.2 2396.7C1767.7 2394.2 1806.9 2391.7 1849.5 2389C1715.7 2179 1682 1968.4 1708.8 1855.5C1713.5 1874.3 1716.1 1890.4 1721.4 1905.6C1756.7 2007 1785 2111.9 1830.4 2208.6C1875.1 2303.8 1961.9 2355.9 2064.1 2380C1937.1 2256.4 1870.3 2102.2 1826 1935.3C1785.4 1782.3 1698.3 1543.9 1692 1379.8C1616.1 1497.2 1637.2 1638.4 1631.1 1752.5C1616 1723 1604.5 1693.1 1593 1663.2C1546.7 1542.8 1494.5 1337.5 1445.8 1218.1C1433.6 1188.2 1410.9 1103.3 1392.3 1076C1385.5 1077.6 1253.9 1391.2 1454.3 1735.5C1451.5 1736.7 1448.7 1737.9 1445.8 1739.1C1367.2 1632.3 1288.6 1486.3 1203.3 1370.3C1126.1 1566.1 1318 1834.6 1341.8 1847.1C1257.1 1802.4 1172.5 1757.6 1080.7 1709.1C1089.9 1889.4 1314.8 2005.3 1359.4 2020.4C1262 1996 1164.5 1971.6 1060.8 1945.7C1098.8 2092.2 1222.4 2110 1326.2 2158.9C1249.3 2151.3 1172.3 2143.6 1095.4 2136C1159.8 2262.7 1284.7 2249.9 1388.5 2288.5H1146.2C1169.4 2349.7 1216.3 2363.8 1264.5 2371.9C1328.3 2382.7 1392.8 2389.4 1457 2397.9C1456.9 2402.2 1456.8 2406.6 1456.7 2410.9H1212.6C1297 2505.1 1399.1 2495.2 1496.1 2508.9C1436.1 2520.2 1376.2 2531.6 1316.2 2543C1316.8 2548.8 1317.4 2554.6 1318 2560.4C1411.4 2613.7 1518.3 2597.1 1619.7 2617.1C1556.6 2628 1493.5 2638.8 1426.2 2650.4C1507.9 2753.5 1625.3 2714.3 1724.6 2742.9C1690.2 2756.1 1655.8 2769.3 1621.5 2782.5C1619.8 2789.5 1618.1 2796.4 1616.4 2803.4C1641.6 2813.8 1666 2827.4 1692.1 2833.6C1722.1 2840.8 1754.2 2839.1 1784.4 2846.1C1796.7 2848.9 1816.8 2867.4 1815.1 2873.4C1795.2 2941.6 1841.3 2932.3 1881.1 2933.5C1921.4 2934.8 1972 2914.6 1983.5 2982.1C1985 2991 2010.8 3000.8 2025.7 3001.3C2058 3002.5 2090.9 3000.3 2122.9 2995C2153.5 2990 2183.2 2979.5 2213.2 2971.4C2163.4 3029.6 2179.1 3122.1 2102.4 3160.1C2136.4 3173.2 2168.5 3185.5 2200.7 3197.9L2202.5 3214C2156.5 3271.4 2097.4 3327.9 1929.8 3359.1C1947.5 3342.6 1993.8 3298 2022.4 3271.3C1878.4 3347.8 1730.4 3351.7 1653.7 3324.7C1706.2 3306.9 1894.8 3257.9 1949.6 3239.4C1934.9 3221.8 1924.2 3208.9 1910.9 3193C1942.5 3185.4 1968.5 3179.1 1994.5 3172.8C1986.9 3153.2 1755.7 3172.4 1724.9 3172.8C1724.9 3172.8 1825.8 3208.6 1847.2 3224.1C1765.2 3254.3 1684.5 3264.8 1472.8 3292.6C1552.6 3362.5 1727.5 3415.2 1840.2 3389.9C1832.1 3403.7 1817.4 3414.3 1776.6 3444.7C1915.6 3455.1 2040.5 3415.5 2175.5 3343.4C2308.5 3292.2 2313.3 3309.1 2445 3394.3C2469.7 3425.7 2410.8 3453.1 2371 3493.8C2413.8 3490.3 2446.7 3487.6 2482.8 3484.7C2481.4 3504.2 2480.3 3517.8 2479 3536.8C2527.5 3525.5 2568.3 3476.7 2617.2 3522C2604.2 3562.9 2610.4 3562.9 2617.2 3604.1C2644.6 3593.4 2649.4 3589 2688.1 3577.3C2751.1 3567.7 2772.4 3646.3 2813.3 3674C2870.5 3625.4 2846.4 3533.2 2839 3513.9C2850.1 3522.8 2874.6 3532.2 2898.4 3581.4C2933 3554.1 2954 3520.1 2941.5 3472.3C2943.8 3471 2951.4 3468.7 2961 3473.3C2967.9 3451.3 2971.9 3442.4 2957.9 3413C2937.1 3369.2 2883.3 3352.9 2851.8 3367.2C2890.2 3377.9 2919.2 3382.4 2926.2 3439.7C2902.8 3436.9 2878.6 3434.1 2854.5 3431.2C2890.5 3457.1 2916.3 3480.3 2900.7 3521.2C2874.3 3503.2 2852.6 3484 2827.5 3472.2C2777.2 3448.7 2724.6 3430.2 2673.9 3407.7C2659.2 3401.2 2647.6 3388 2634.5 3377.8C2636.8 3375 2639.1 3372.1 2641.4 3369.3C2677.6 3374.7 2713.8 3380.1 2750.1 3385.5C2633 3313.6 2599.1 3269.2 2580.2 3147.9C2577.7 3131.7 2580.1 3111 2588.5 3097.6C2623.4 3042.2 2661.2 2988.8 2698.4 2934.9C2721.1 2901.9 2752.9 2889.9 2792.3 2895.6C2875.2 2907.6 2939.7 2946.6 2980.6 3021.4C2989.6 3037.9 2999.3 3054.2 3009.4 3071.8C3076.3 3012.2 3098.3 2910.2 3061.6 2846.8ZM2421.7 3265.8C2417.9 3259.9 2496.9 3206 2507.6 3181.3C2537 3241.8 2543.2 3263.9 2565.2 3309.1C2561 3312.1 2511.8 3344.3 2507.6 3347.3C2471.1 3309.1 2446.5 3304.6 2421.7 3265.8ZM2803 3496.6C2818.3 3502.9 2826.3 3554.2 2821.8 3557C2806.6 3542.6 2791.4 3528.1 2770.5 3508.2C2789.6 3543.6 2792.9 3566.1 2786.3 3593.3C2692.1 3508.4 2658.4 3551.6 2642.4 3562.7C2650 3538.9 2657.6 3515.1 2665.3 3491.1C2624.1 3467.7 2584.1 3445 2544.1 3422.3C2547.2 3416.2 2550.3 3410.2 2553.5 3404.1C2636.8 3434.4 2721 3462.8 2803 3496.6ZM3020.7 3012.2C3028.2 2974.2 2957.5 2905.6 2912.7 2874.3C2867.9 2842.9 3002.8 2870.4 3002.8 2870.4C3030.1 2889.5 3057 2960.2 3020.7 3012.2Z" fill="white"/>
<path d="M2520.6 2274.9C2502.2 2244.2 2482.4 2217.9 2470.4 2188.5C2463.9 2172.5 2463.7 2145 2473.4 2133.9C2481.7 2124.5 2509.2 2127.5 2526.6 2131.7C2551 2137.7 2573.9 2150 2609 2164.2C2592.7 2133.3 2581.7 2114.4 2572.6 2094.5C2565.1 2078.3 2554.2 2061 2554.6 2044.3C2555.4 2009.9 2562.7 1975.7 2567.3 1941.4C2593.2 1956.8 2620.4 1970.5 2644.7 1988.3C2662.7 2001.5 2677 2019.8 2698.9 2036C2681.1 1937.3 2638.2 1836.3 2731.9 1740.9C2761.4 1822.2 2789.1 1898.5 2816.8 1974.9C2822.8 1835 2740.4 1682.8 2898.5 1562.9C2915.6 1682 2931 1790 2946.5 1898L2958.4 1896.4C2967.3 1790 2975.1 1683.5 2985.5 1577.3C2992.9 1502.3 3047.8 1423.7 3123.4 1380.7C3118.6 1453.2 3114.4 1520.4 3109.6 1587.5C3099.3 1732.9 3090.2 1878.1 3120.9 2022.5C3131.7 2073.3 3124.5 2123 3084.1 2158.3C2979.8 2249.4 2873 2337.7 2767 2427C2761.1 2431.9 2753.5 2434.8 2746.7 2438.6C2743.5 2435.7 2740.4 2432.8 2737.3 2429.9C2799.8 2358.7 2861.9 2287.2 2925.1 2216.7C2936.9 2203.5 2953.6 2194.9 2967.8 2183.8C3074.4 2101.1 3091.1 2038 3035.7 1892.8C3025.5 2084.4 2935.8 2193.8 2745.5 2216.7C2767.2 2230.5 2781.8 2239.8 2794.2 2247.7C2757.5 2341 2687.6 2379.7 2585.9 2366.4C2586.8 2371.3 2587.8 2376.2 2588.7 2381.1C2602.5 2385.2 2616.2 2389.6 2630.1 2393.4C2644.2 2397.3 2658.5 2400.6 2681 2406.3C2607.6 2460.3 2557.9 2547.5 2466.2 2549.2C2362.7 2551.1 2255.8 2538.7 2164.1 2471.5C2225.8 2466.1 2281.1 2461.3 2336.4 2456.4C2302.1 2380.6 2315.4 2366 2411.9 2378.2C2405.7 2346.5 2398.9 2312 2392.1 2277.5C2426.7 2276.7 2461.2 2275.8 2495.8 2275.1C2503.5 2274.8 2511 2274.9 2520.6 2274.9Z" fill="#3E5663"/>
</g>
<defs>
<clipPath id="clip0_3848_2523">
<rect width="3024" height="2848" fill="white" transform="translate(988 1076)"/>
</clipPath>
</defs>
</svg>
