<svg width="5000" height="5000" viewBox="0 0 5000 5000" fill="none" xmlns="http://www.w3.org/2000/svg">
<path fill-rule="evenodd" clip-rule="evenodd" d="M3168.38 2998.56C3027.52 3191.13 3141.44 3146.62 3141.44 3146.62C2985.85 3381.23 2495.63 3725.41 2495.63 3725.41C2495.63 3725.41 2018.9 3381.23 1863.74 3146.62C1863.74 3146.62 1977.35 3191.13 1836.89 2998.56C1836.89 2998.56 1498.58 2598.48 1534.7 1658.61C1886.12 1619.86 2198.24 1469.57 2495.63 1275C2799.17 1469.22 3110.69 1618.84 3465.35 1658.61C3507.63 2598.48 3168.38 2998.56 3168.38 2998.56ZM3356.93 1968.19C3362.39 1851.6 3142.11 1887.43 3142.11 1887.43C3338.12 1730.89 3115.18 1632.37 3115.18 1632.37C3115.18 1632.37 3025.92 1613.77 2811.46 1524.01C2597.01 1434.25 2495.63 1618.23 2495.63 1618.23C2495.63 1618.23 2406.65 1434.25 2192.79 1524.01C1978.94 1613.77 1883.89 1632.37 1883.89 1632.37C1883.89 1632.37 1667.62 1730.89 1857.03 1887.43C1857.03 1887.43 1643.41 1851.6 1648.86 1968.19C1654.3 2084.79 1483.28 2811.57 2374.1 3482.45C2415.16 3510.05 2457.44 3537.11 2507.76 3558.9C2547.19 3539.19 2597.16 3511.41 2629.64 3482.45C3522.98 2811.57 3351.47 2084.79 3356.93 1968.19Z" fill="#E57320"/>
<path d="M3142.11 1887.43C3142.11 1887.43 3362.39 1851.6 3356.93 1968.19C3355.18 2005.56 3371.61 2105.59 3365.33 2246.38C3394.06 2177.76 3454.25 2027.84 3465.18 1977.12C3470 1878.73 3470.48 1772.64 3465.35 1658.61C3110.69 1618.84 2799.17 1469.22 2495.63 1275C2198.24 1469.57 1886.12 1619.86 1534.7 1658.61C1530.33 1772.21 1531.44 1877.92 1536.75 1976C1557.81 2046.85 1614.83 2189.13 1640.71 2251.41C1633.83 2107.98 1650.62 2006 1648.86 1968.19C1643.41 1851.6 1857.03 1887.43 1857.03 1887.43C1667.62 1730.89 1883.89 1632.37 1883.89 1632.37C1883.89 1632.37 1978.94 1613.77 2192.79 1524.01C2406.65 1434.25 2495.63 1618.23 2495.63 1618.23C2495.63 1618.23 2597.01 1434.25 2811.46 1524.01C3025.92 1613.77 3115.18 1632.37 3115.18 1632.37C3115.18 1632.37 3338.12 1730.89 3142.11 1887.43Z" fill="white"/>
<path fill-rule="evenodd" clip-rule="evenodd" d="M1656.87 1851.09L1587.98 1811.54L1588.17 1732.1L1657.26 1692.21L1726.16 1731.76L1725.96 1811.2L1656.87 1851.09Z" fill="#101010"/>
<path fill-rule="evenodd" clip-rule="evenodd" d="M3356.25 1851.09L3287.35 1811.54L3287.55 1732.1L3356.64 1692.21L3425.54 1731.76L3425.34 1811.2L3356.25 1851.09Z" fill="#101010"/>
<path fill-rule="evenodd" clip-rule="evenodd" d="M2500.97 1484.52L2447.8 1454L2447.95 1392.7L2501.27 1361.92L2554.44 1392.44L2554.28 1453.74L2500.97 1484.52Z" fill="#101010"/>
<path fill-rule="evenodd" clip-rule="evenodd" d="M2504.39 3676.67L2466.76 3655.07L2466.87 3611.68L2504.6 3589.9L2542.23 3611.5L2542.12 3654.88L2504.39 3676.67Z" fill="#101010"/>
<path d="M2377.08 2716.93C2285.04 2590.88 2260.83 2542.27 2224.95 2453.66C2188.42 2510.54 2114.17 2601.02 2301.61 2798.86C2402.54 2905.38 2487.09 3066.48 2402.09 3193.38C2539.9 3012.13 2495.34 2878.87 2377.08 2716.93Z" fill="#E57320"/>
<path fill-rule="evenodd" clip-rule="evenodd" d="M2140.52 2117.47C2119.81 2123.68 2106.77 2128.93 2106.56 2129.02L2071.23 2143.36L2088.13 2109.18C2182.55 1918.33 2398.2 1871.65 2448.09 1863.26C2510.62 1852.75 2531.43 1825.54 2530.34 1781.95L2515.32 1720.06C2550.09 1739.23 2570.06 1748.7 2574.02 1781.95C2578.36 1805.37 2571.48 1801.89 2567.09 1812.05C2581.18 1794.46 2621.5 1769.3 2622.58 1768.68L2638.35 1757.96L2635.8 1799.32C2634.92 1827.41 2629.33 1853.85 2635.59 1880.86C2638.33 1892.73 2654.13 1893.59 2654.75 1901.54C2661.33 1900.04 2669.07 1899.36 2677.75 1900.45C2703.63 1903.71 2728.21 1921.48 2750.8 1953.26C2795.43 2016.06 2840.49 2033.95 2840.87 2034.1L2892.69 2053.5L2838.01 2061.97C2821.2 2064.58 2803.61 2065.46 2789.07 2065.61C2806.05 2090.45 2817.88 2119.27 2823.11 2133.25C2823.92 2135.43 2825.22 2137.3 2826.96 2138.81C2833.83 2144.76 2915.29 2209.63 2950.55 2239.13C2963.28 2249.78 2971.35 2261.81 2975.96 2274.39C2965.73 2321.02 2964.15 2372.69 2947.96 2393.2C2927.1 2400.83 2923.22 2402.48 2910.22 2408.27C2897.55 2423.82 2883.29 2431.64 2867.75 2431.58C2846.47 2450.95 2789.78 2409.04 2806.1 2387C2800.8 2378.98 2735.7 2340.48 2725.79 2340.3C2432.71 2335.11 2489.21 2220.15 2479.99 2203.12C2423.15 2318.84 2545.92 2409.77 2613.52 2463.27C2656.1 2496.97 2770.6 2592.46 2811.8 2771.07C2871.32 3029.09 2645.88 3217.21 2516.87 3283.73C2718.31 2798.04 2321.15 2898.19 2148.41 2580.34C2126.97 2647.11 2114.01 2705.82 2156.11 2830.22C1915.95 2489.52 2002.79 2274.42 2140.52 2117.47Z" fill="white"/>
</svg>
