<svg width="5000" height="5000" viewBox="0 0 5000 5000" fill="none" xmlns="http://www.w3.org/2000/svg">
<g clip-path="url(#clip0_3848_2436)">
<rect opacity="0.5" x="2521.02" y="1441.32" width="1487.11" height="1487.11" transform="rotate(45 2521.02 1441.32)" stroke="#8DA8B7" stroke-width="101"/>
<path d="M2699 2342.51C3181.76 2233.54 3473.13 1919.58 3527.46 1434.82C3539.53 1657.3 3550.85 1875.61 3367.96 2075.99C3124.48 2342.75 2891.97 2339.42 2699 2342.51Z" fill="#74C8A9" fill-opacity="0.6"/>
<path d="M3525.28 1441.16C3038.05 1527.99 2732.69 1828.34 2656.33 2310.11C2654.41 2087.31 2653.04 1868.72 2844.87 1676.89C3100.25 1421.51 3332.36 1435.44 3525.28 1441.16Z" fill="#74C8A9" fill-opacity="0.6"/>
<path d="M3201.39 1680.9C3244.78 1663.09 3294.05 1648.39 3349.23 1636.8C3354.1 1635.7 3355.96 1637.56 3354.81 1642.38C3324.79 1767.52 3276.63 1876.36 3210.32 1968.9C3175.23 2017.82 3137.3 2064.04 3096.53 2107.54C3063.59 2142.7 3019.82 2183.08 2965.23 2228.67C2833.51 2338.47 2662.43 2470.53 2451.98 2624.86C2392.9 2668.15 2252.55 2779.34 2030.92 2958.43C2028.66 2960.3 2028.49 2960.08 2030.4 2957.78C2216.37 2733.7 2395.06 2503.03 2566.42 2265.76C2590.77 2232.02 2648.37 2160.19 2739.24 2050.28C2809.73 1965.04 2887.64 1887.25 2972.98 1816.92C3040.71 1761.07 3116.85 1715.73 3201.39 1680.9Z" fill="white"/>
<path d="M2813.85 1726.14C2819.34 1724.53 2820.46 1726.11 2817.22 1730.87C2806.33 1746.83 2797.17 1765.3 2789.77 1786.28C2774 1831.11 2758.93 1876.17 2744.54 1921.48C2707.59 2037.83 2658.81 2148.98 2598.19 2254.94C2597.65 2255.87 2597.06 2256.68 2596.41 2257.39C2592.13 2261.84 2590.92 2261.7 2592.78 2256.97C2633.27 2155.77 2656.11 2049.25 2661.29 1937.4C2662.33 1915.07 2666.48 1891.13 2673.75 1865.56C2694.02 1793.87 2740.72 1747.4 2813.85 1726.14Z" fill="white"/>
<path d="M3263.69 2172.94C3266.67 2171.25 3267.72 2172.05 3266.85 2175.35C3253.54 2226.68 3224.31 2266.52 3179.17 2294.88C3160.89 2306.33 3138.51 2315.07 3112.01 2321.06C3099.15 2323.96 3075.48 2326.57 3041.01 2328.88C2936.61 2335.97 2835.25 2358.26 2736.95 2395.74C2736.3 2395.99 2735.53 2396.48 2734.63 2397.22C2733.48 2398.2 2732.63 2398.4 2732.1 2397.81C2732.06 2397.77 2732.03 2397.73 2732 2397.68C2731.57 2397.06 2731.9 2396.07 2732.74 2395.5C2732.79 2395.46 2732.84 2395.43 2732.9 2395.4C2834.74 2336.13 2941.66 2288.15 3053.64 2251.46C3098.7 2236.64 3143.73 2221.82 3188.76 2206.98C3212.24 2199.27 3237.22 2187.92 3263.69 2172.94Z" fill="white"/>
<path d="M2337.51 2294.32C2228.54 1811.55 1914.58 1520.19 1429.82 1465.86C1652.3 1453.79 1870.61 1442.46 2070.99 1625.35C2337.75 1868.83 2334.42 2101.34 2337.51 2294.32Z" fill="#74C8A9" fill-opacity="0.6"/>
<path d="M1436.16 1468.03C1523 1955.26 1823.34 2260.62 2305.11 2336.99C2082.31 2338.91 1863.72 2340.27 1671.89 2148.44C1416.51 1893.06 1430.44 1660.95 1436.16 1468.03Z" fill="#74C8A9" fill-opacity="0.6"/>
<path d="M1675.9 1791.92C1658.09 1748.53 1643.39 1699.26 1631.8 1644.08C1630.7 1639.21 1632.56 1637.35 1637.38 1638.51C1762.52 1668.52 1871.36 1716.68 1963.9 1783C2012.82 1818.08 2059.04 1856.02 2102.54 1896.78C2137.7 1929.73 2178.08 1973.49 2223.67 2028.08C2333.47 2159.81 2465.53 2330.88 2619.86 2541.33C2663.15 2600.41 2774.34 2740.77 2953.43 2962.39C2955.3 2964.65 2955.08 2964.82 2952.78 2962.91C2728.7 2776.94 2498.03 2598.26 2260.76 2426.89C2227.02 2402.55 2155.19 2344.95 2045.28 2254.08C1960.04 2183.58 1882.25 2105.67 1811.92 2020.33C1756.07 1952.6 1710.73 1876.47 1675.9 1791.92Z" fill="white"/>
<path d="M1721.14 2179.47C1719.53 2173.98 1721.11 2172.85 1725.87 2176.09C1741.83 2186.99 1760.3 2196.14 1781.28 2203.55C1826.11 2219.31 1871.17 2234.39 1916.48 2248.78C2032.83 2285.73 2143.98 2334.51 2249.94 2395.13C2250.87 2395.66 2251.68 2396.26 2252.39 2396.9C2256.83 2401.18 2256.69 2402.4 2251.96 2400.54C2150.77 2360.05 2044.24 2337.21 1932.4 2332.03C1910.07 2330.99 1886.13 2326.83 1860.56 2319.57C1788.87 2299.3 1742.39 2252.6 1721.14 2179.47Z" fill="white"/>
<path d="M2167.94 1729.63C2166.25 1726.65 2167.05 1725.59 2170.34 1726.46C2221.67 1739.78 2261.52 1769.01 2289.87 1814.14C2301.33 1832.42 2310.06 1854.8 2316.06 1881.3C2318.96 1894.17 2321.57 1917.83 2323.87 1952.3C2330.97 2056.71 2353.26 2158.06 2390.73 2256.36C2390.99 2257.01 2391.48 2257.78 2392.21 2258.68C2393.2 2259.84 2393.4 2260.69 2392.8 2261.22C2392.77 2261.26 2392.72 2261.29 2392.68 2261.32C2392.06 2261.75 2391.07 2261.41 2390.5 2260.58C2390.46 2260.52 2390.43 2260.47 2390.4 2260.41C2331.13 2158.57 2283.15 2051.65 2246.46 1939.67C2231.64 1894.62 2216.82 1849.58 2201.98 1804.56C2194.27 1781.07 2182.92 1756.1 2167.94 1729.63Z" fill="white"/>
<path d="M2289.32 2657.46C1806.55 2766.42 1515.19 3080.39 1460.86 3565.15C1448.78 3342.67 1437.46 3124.36 1620.35 2923.97C1863.83 2657.21 2096.34 2660.54 2289.32 2657.46Z" fill="#74C8A9" fill-opacity="0.6"/>
<path d="M1463.03 3558.81C1950.26 3471.97 2255.62 3171.62 2331.98 2689.85C2333.91 2912.65 2335.27 3131.25 2143.44 3323.08C1888.06 3578.45 1655.95 3564.53 1463.03 3558.81Z" fill="#74C8A9" fill-opacity="0.6"/>
<path d="M1786.92 3319.06C1743.53 3336.88 1694.26 3351.58 1639.08 3363.17C1634.21 3364.26 1632.35 3362.4 1633.5 3357.59C1663.52 3232.45 1711.68 3123.61 1777.99 3031.07C1813.08 2982.14 1851.02 2935.93 1891.78 2892.42C1924.72 2857.27 1968.49 2816.88 2023.08 2771.3C2154.81 2661.49 2325.88 2529.43 2536.33 2375.1C2595.41 2331.81 2735.77 2220.62 2957.39 2041.53C2959.65 2039.66 2959.82 2039.88 2957.91 2042.18C2771.94 2266.27 2593.26 2496.94 2421.89 2734.2C2397.55 2767.94 2339.94 2839.78 2249.08 2949.69C2178.58 3034.93 2100.67 3112.72 2015.33 3183.04C1947.6 3238.89 1871.47 3284.24 1786.92 3319.06Z" fill="white"/>
<path d="M2174.47 3273.83C2168.98 3275.43 2167.85 3273.86 2171.09 3269.1C2181.99 3253.13 2191.14 3234.66 2198.54 3213.68C2214.31 3168.86 2229.39 3123.79 2243.78 3078.48C2280.72 2962.13 2329.5 2850.98 2390.13 2745.03C2390.66 2744.1 2391.25 2743.28 2391.9 2742.58C2396.18 2738.13 2397.39 2738.27 2395.53 2743C2355.05 2844.2 2332.2 2950.72 2327.03 3062.56C2325.98 3084.89 2321.83 3108.83 2314.57 3134.4C2294.29 3206.1 2247.59 3252.57 2174.47 3273.83Z" fill="white"/>
<path d="M1724.63 2827.03C1721.64 2828.71 1720.59 2827.91 1721.46 2824.62C1734.78 2773.29 1764 2733.44 1809.14 2705.09C1827.42 2693.63 1849.8 2684.9 1876.3 2678.9C1889.17 2676 1912.83 2673.39 1947.3 2671.09C2051.71 2663.99 2153.06 2641.7 2251.36 2604.23C2252.01 2603.97 2252.78 2603.48 2253.68 2602.75C2254.83 2601.77 2255.68 2601.57 2256.22 2602.16C2256.25 2602.2 2256.29 2602.24 2256.32 2602.28C2256.74 2602.91 2256.41 2603.89 2255.57 2604.46C2255.52 2604.5 2255.47 2604.54 2255.41 2604.57C2153.57 2663.84 2046.65 2711.82 1934.67 2748.51C1889.62 2763.32 1844.58 2778.14 1799.55 2792.98C1776.07 2800.7 1751.1 2812.04 1724.63 2827.03Z" fill="white"/>
<path d="M2661.62 2705.65C2770.59 3188.42 3084.55 3479.78 3569.31 3534.11C3346.83 3546.18 3128.52 3557.5 2928.14 3374.61C2661.38 3131.14 2664.71 2898.62 2661.62 2705.65Z" fill="#74C8A9" fill-opacity="0.6"/>
<path d="M3562.97 3531.93C3476.13 3044.7 3175.79 2739.34 2694.02 2662.98C2916.81 2661.06 3135.41 2659.69 3327.24 2851.52C3582.62 3106.9 3568.69 3339.02 3562.97 3531.93Z" fill="#74C8A9" fill-opacity="0.6"/>
<path d="M3323.23 3208.04C3341.04 3251.43 3355.74 3300.7 3367.33 3355.88C3368.43 3360.76 3366.57 3362.61 3361.75 3361.46C3236.61 3331.44 3127.77 3283.28 3035.23 3216.97C2986.3 3181.88 2940.09 3143.95 2896.59 3103.18C2861.43 3070.24 2821.05 3026.47 2775.46 2971.88C2665.66 2840.16 2533.59 2669.08 2379.26 2458.64C2335.98 2399.55 2224.79 2259.2 2045.7 2037.57C2043.83 2035.31 2044.05 2035.14 2046.35 2037.05C2270.43 2223.02 2501.1 2401.71 2738.37 2573.07C2772.11 2597.42 2843.94 2655.02 2953.85 2745.89C3039.09 2816.39 3116.88 2894.29 3187.2 2979.63C3243.06 3047.36 3288.4 3123.5 3323.23 3208.04Z" fill="white"/>
<path d="M3277.99 2820.49C3279.6 2825.98 3278.02 2827.11 3273.26 2823.87C3257.3 2812.98 3238.83 2803.82 3217.85 2796.42C3173.02 2780.65 3127.96 2765.57 3082.65 2751.18C2966.3 2714.24 2855.15 2665.46 2749.19 2604.83C2748.26 2604.3 2747.45 2603.71 2746.74 2603.06C2742.29 2598.78 2742.43 2597.57 2747.16 2599.43C2848.36 2639.92 2954.88 2662.76 3066.73 2667.94C3089.06 2668.98 3113 2673.13 3138.57 2680.4C3210.26 2700.67 3256.74 2747.37 3277.99 2820.49Z" fill="white"/>
<path d="M2831.19 3270.34C2832.88 3273.32 2832.08 3274.37 2828.78 3273.5C2777.45 3260.19 2737.61 3230.96 2709.25 3185.82C2697.8 3167.55 2689.07 3145.16 2683.07 3118.66C2680.17 3105.8 2677.56 3082.13 2675.25 3047.67C2668.16 2943.26 2645.87 2841.9 2608.39 2743.6C2608.14 2742.95 2607.65 2742.18 2606.92 2741.28C2605.93 2740.13 2605.73 2739.28 2606.32 2738.75C2606.36 2738.71 2606.4 2738.68 2606.45 2738.65C2607.07 2738.22 2608.06 2738.55 2608.63 2739.39C2608.67 2739.44 2608.7 2739.5 2608.73 2739.55C2668 2841.39 2715.98 2948.31 2752.67 3060.29C2767.49 3105.35 2782.31 3150.38 2797.15 3195.41C2804.86 3218.89 2816.21 3243.87 2831.19 3270.34Z" fill="white"/>
<path d="M2965.3 2493.32C2965.3 2747.97 2759.14 2954.32 2504.92 2954.32C2250.71 2954.32 2044.54 2747.97 2044.54 2493.32C2044.54 2238.67 2250.71 2032.32 2504.92 2032.32C2759.14 2032.32 2965.3 2238.67 2965.3 2493.32Z" fill="#101010" stroke="white" stroke-width="77.3535"/>
<path d="M2249.13 2377.27H2448.85V2409.24H2249.13V2377.27ZM2267.21 2461.66H2427.89V2493.38H2267.21V2461.66ZM2234.18 2550.26H2462.75V2582.5H2234.18V2550.26ZM2581.48 2564.94H2733.51V2593.24H2581.48V2564.94ZM2621.85 2431.26H2701.79V2459.31H2621.85V2431.26ZM2622.11 2497.84H2702.05V2525.62H2622.11V2497.84ZM2604.55 2364.95H2712.28V2579.88H2681.08V2393.52H2634.17V2579.88H2604.55V2364.95ZM2500.23 2530.34C2498.92 2524.83 2494.2 2511.47 2491.05 2504.39C2497.61 2502.82 2503.9 2496.79 2512.55 2487.35C2521.72 2478.18 2549.5 2442.01 2567.85 2406.36L2591.7 2421.82C2571.26 2456.42 2544.79 2491.02 2518.84 2515.92V2516.45C2518.84 2516.45 2500.23 2525.1 2500.23 2530.34ZM2500.23 2530.34L2498.39 2507.01L2511.5 2497.57L2587.51 2484.73C2586.46 2492.59 2586.2 2504.13 2586.46 2510.16C2518.05 2523.52 2507.04 2526.67 2500.23 2530.34ZM2498.13 2466.38C2496.56 2460.62 2491.84 2446.46 2488.69 2438.6C2493.94 2437.03 2498.65 2431.52 2504.42 2422.87C2510.45 2414.75 2528.8 2381.72 2538.5 2351.05L2566.54 2364.16C2553.44 2395.09 2533.78 2428.11 2514.64 2450.92V2451.97C2514.64 2451.97 2498.13 2461.14 2498.13 2466.38ZM2498.13 2466.38L2497.34 2445.15L2509.93 2436.76L2555.27 2433.36C2553.7 2440.7 2552.39 2451.7 2552.39 2457.73C2511.76 2461.93 2503.37 2464.02 2498.13 2466.38ZM2491.58 2554.45C2514.38 2550 2549.24 2542.13 2582.27 2534.27L2585.68 2560.22C2555.01 2569.13 2522.77 2577.52 2497.34 2584.33L2491.58 2554.45Z" fill="white"/>
</g>
<defs>
<clipPath id="clip0_3848_2436">
<rect width="5000" height="5000" fill="white"/>
</clipPath>
</defs>
</svg>
