<svg width="5127" height="5127" viewBox="0 0 5127 5127" fill="none" xmlns="http://www.w3.org/2000/svg">
<g opacity="0.25">
<mask id="mask0_3848_2318" style="mask-type:alpha" maskUnits="userSpaceOnUse" x="1651" y="1654" width="1828" height="1860">
<path fill-rule="evenodd" clip-rule="evenodd" d="M2976.72 3404C3274.69 3251.68 3479 2939.19 3479 2578.44C3479 2067.88 3069.79 1654 2565 1654C2060.21 1654 1651 2067.88 1651 2578.44C1651 2793.75 1723.78 2991.86 1845.81 3149C1904.14 3274.37 2046.46 3352.27 2153.82 3411.02C2190.46 3431.08 2223.03 3448.91 2246.79 3465.63C2328.11 3522.86 2601.95 3515.25 2743.13 3511.32C2776.58 3510.39 2802.59 3509.67 2816.82 3510.07C2853.54 3511.09 2917.61 3459.27 2976.72 3404ZM2976.72 3404C3006.44 3376.2 3034.91 3347.53 3058 3324.27C3063.3 3318.93 3068.32 3313.88 3073 3309.19L3024.51 3135.44L2993.56 3155.59C2997.21 3139.01 3000.57 3127.76 3003.87 3116.74C3007.14 3105.79 3010.33 3095.08 3013.68 3079.63C3018.64 3063.38 3029.44 3052.33 3039.51 3042.02C3048.51 3032.81 3056.94 3024.19 3060.1 3012.98C3060.1 3001.1 3056.24 2982.11 3051.88 2960.65C3048.27 2942.9 3044.32 2923.46 3041.93 2904.98C3034.07 2875.54 3028.92 2852.58 3024.24 2831.7C3017.68 2802.46 3012.04 2777.33 3001.18 2744.28C2991.89 2700.18 2962.71 2605.69 2909.47 2532.93C2842.93 2441.99 2820.94 2323.22 2820.94 2279.3C2820.94 2278.71 2820.94 2278.1 2820.94 2277.47C2820.94 2251.17 2820.92 2196.2 2834.36 2156.83C2839.83 2130.93 2825.93 2097.28 2817.71 2077.35C2817.4 2076.61 2817.11 2075.89 2816.82 2075.19L2791.54 2029.2C2782.26 2014 2767.11 2019.62 2753.95 2024.49C2737.13 2030.72 2723.56 2035.75 2729.64 1994.58C2733.18 1970.55 2688.37 1912.94 2658.96 1882.97C2635.44 1858.99 2590.35 1856.1 2580.55 1879.35C2578.92 1883.22 2574.9 1896.23 2569.17 1914.79C2556.26 1956.62 2534.63 2026.65 2511.94 2083.97C2497.17 2099.5 2484.79 2109.99 2474.18 2118.98C2454.76 2135.42 2441.26 2146.85 2429.92 2174.92C2421.86 2206.43 2418.41 2229.89 2415.2 2251.73C2410.57 2283.22 2406.44 2311.32 2389.68 2355.26C2374.61 2394.8 2366.75 2418.34 2359.32 2440.6C2352.77 2460.23 2346.55 2478.88 2336 2506.63C2312.96 2557.1 2292.7 2628.53 2312.82 2638.35C2315.09 2639.45 2317.05 2641.21 2319.1 2643.05C2325.63 2648.91 2333.08 2655.59 2354.09 2644.55C2345.41 2659.55 2339.76 2670.31 2335.17 2679.02C2320.2 2707.5 2316.73 2714.11 2257 2775.16C2237.61 2804.51 2254.9 2811.56 2272.58 2818.76C2276.06 2820.18 2279.56 2821.61 2282.79 2823.21C2109.87 2960.04 1990.36 3032.38 1830.5 3108.42C1834.61 3122.48 1839.76 3135.99 1845.81 3149C2013.14 3364.47 2273.09 3502.87 2565 3502.87C2713.11 3502.87 2852.99 3467.24 2976.72 3404Z" fill="#D9D9D9"/>
</mask>
<g mask="url(#mask0_3848_2318)">
<path d="M2562.33 2172.39C2570.37 2154.62 2572.52 2137.03 2568.76 2119.62C2563.94 2097.25 2569.06 2077.59 2584.09 2060.62C2609.36 2031.98 2633.56 2028.93 2656.72 2051.47C2664.76 2059.25 2669.66 2057.57 2671.4 2046.43C2675.34 2020.88 2686.74 2002.37 2705.62 1990.87C2720.83 1981.5 2740.23 1978.37 2763.83 1981.46C2827.89 1989.85 2856.03 2032.11 2848.25 2108.22C2845.98 2130.85 2835.1 2136.72 2815.61 2125.85C2797.78 2115.95 2785.5 2124.53 2778.77 2151.57C2772.05 2178.62 2777.29 2198.42 2794.5 2210.98C2806.56 2219.73 2823.61 2223.8 2845.63 2223.17C2888.28 2222.11 2919.4 2205.01 2938.97 2171.86C2953.91 2146.5 2959.77 2114.67 2956.54 2076.39C2950.77 2007.71 2919.92 1951.53 2863.98 1907.87C2823.34 1876.14 2775.53 1854.87 2720.56 1844.09C2649.42 1830.21 2577.58 1824.34 2505.04 1826.46C2501.01 1826.63 2496.98 1825.16 2493.77 1822.35C2474.54 1806.08 2452.21 1797.82 2426.78 1797.55C2420.92 1797.46 2416.03 1798.52 2412.1 1800.73C2403.54 1805.41 2403.84 1810.94 2413.01 1817.31C2416.16 1819.43 2420.53 1820.93 2426.12 1821.82C2475.06 1829.15 2500.06 1857.35 2501.11 1906.41C2501.28 1914.54 2499.54 1921.09 2495.87 1926.03C2491.41 1931.96 2485.64 1936.28 2478.56 1939.03C2473.78 1940.98 2470.15 1943.7 2468.47 1946.59C2464.44 1953.57 2462.92 1961.44 2463.88 1970.19C2464.4 1975.32 2463.92 1979.56 2462.44 1982.92C2449.76 2011.91 2427.61 2024.51 2395.97 2020.71C2395.68 2020.68 2395.4 2020.61 2395.12 2020.51C2393.02 2019.76 2391.93 2017.28 2392.72 2015.02C2392.81 2014.74 2392.94 2014.46 2393.09 2014.21C2412.32 1982.12 2411.61 1956.53 2390.99 1937.44C2378.31 1925.68 2358.44 1918.08 2331.34 1914.63C2277.24 1907.83 2224.37 1915.2 2172.72 1936.77C2086.36 1972.75 2018.9 2030.38 1970.3 2109.67C1960.7 2125.32 1951.95 2136.59 1944.09 2143.49C1935.08 2151.44 1923.67 2160.29 1909.87 2170C1900.4 2176.67 1888.91 2179.68 1877.49 2178.49C1865.52 2177.16 1849.83 2181.37 1830.43 2191.09C1820.72 2195.95 1818.8 2193.78 1824.66 2184.59C1842.49 2156.84 1858.22 2131.65 1871.85 2109.01C2003.21 1890.67 2193.26 1764.8 2441.99 1731.39C2498.79 1723.79 2558.7 1721.88 2621.72 1725.69C2685.26 1729.57 2743.99 1739.38 2797.91 1755.12C2950.6 1799.41 3076.4 1884.57 3175.34 2010.63C3195.09 2035.82 3212.3 2065.79 3226.99 2100.53C3241.41 2134.56 3250.54 2167.71 3254.39 2199.97C3267.59 2310.99 3226.2 2397.89 3130.24 2460.65C3075.09 2496.71 3016.93 2498.83 2955.75 2467.01C2952.08 2465.12 2947.83 2464.37 2943.56 2464.89C2905.28 2469.66 2876.87 2457.16 2858.35 2427.37C2852.84 2418.62 2846.15 2410.88 2838.29 2404.16C2795.98 2368.36 2790.92 2330.97 2823.08 2291.99C2823.67 2291.26 2824.35 2290.62 2825.09 2290.07C2830.13 2286.3 2837.36 2287.45 2841.12 2292.61C2841.67 2293.36 2842.13 2294.18 2842.48 2295.04C2849.21 2311.39 2861.01 2323.9 2877.88 2332.56C2890.56 2339.19 2906.42 2342.77 2925.47 2343.3C2994.95 2345.33 3044.63 2314.84 3074.52 2251.81C3089.21 2220.79 3086.81 2188.66 3067.31 2155.42C3065.16 2151.79 3061.07 2150.02 3057.48 2151.18C3046.99 2154.45 3044.9 2162.75 3051.19 2176.1C3061.68 2198.47 3061.41 2220.88 3050.4 2243.33C3032.74 2279.3 3001.73 2303.39 2957.32 2315.59C2908.91 2328.94 2876.27 2311.18 2859.39 2262.29C2858.15 2258.56 2854.36 2256.34 2850.61 2257.12C2829.64 2260.92 2812.5 2269.41 2799.22 2282.58C2786.47 2295.3 2778.77 2311.71 2776.15 2331.77C2771.95 2364.48 2783.45 2392.59 2810.63 2416.1C2819.97 2424.22 2827.28 2430.95 2832.52 2436.25C2832.87 2436.62 2833.2 2437.01 2833.5 2437.42C2837.03 2442.28 2835.98 2449.23 2831.17 2452.8C2830.76 2453.1 2830.34 2453.38 2829.9 2453.62C2746.09 2498.79 2667.12 2493.13 2593.01 2436.65C2585.94 2431.25 2576.7 2429.67 2568.23 2432.4C2497.01 2455.91 2447.66 2436.69 2420.22 2374.73C2420.13 2374.55 2416.12 2360.8 2408.16 2333.49C2404.32 2320.06 2398.37 2307.67 2390.33 2296.36C2381.59 2284.07 2371.06 2276.3 2358.74 2273.03C2334.97 2266.66 2317.97 2278.16 2307.74 2307.5C2306.21 2311.77 2301.5 2314.04 2297.26 2312.54C2248.75 2294.6 2227.08 2259.99 2232.23 2208.72C2235.12 2179.91 2245.25 2158.11 2262.65 2143.35C2286.51 2123.2 2310.01 2120.51 2333.18 2135.26C2336.9 2137.65 2341.63 2137.9 2345.63 2135.93C2398.86 2109.58 2435.73 2119.13 2456.28 2164.57C2472.53 2200.37 2495.78 2213.85 2526.02 2205.01C2542.63 2200.14 2554.73 2189.27 2562.33 2172.39Z" fill="white"/>
<path d="M2226.32 2046.05C2226.32 2057.11 2217.32 2066.2 2206.39 2066.2C2195.46 2066.2 2186.46 2057.11 2186.46 2046.05C2186.46 2034.99 2195.46 2025.89 2206.39 2025.89C2217.32 2025.89 2226.32 2034.99 2226.32 2046.05Z" fill="white"/>
<path d="M3362.94 2602.01C3358.05 2603.51 3354.95 2609.43 3353.63 2619.78C3346.12 2677.76 3317.28 2718.38 3267.11 2741.63C3256.79 2746.4 3247.75 2751.93 3239.97 2758.2C3227.39 2768.37 3218.96 2774.29 3214.67 2775.97C3193 2784.63 3171.41 2782.29 3149.91 2768.94C3145.28 2766.02 3136.67 2765.19 3124.09 2766.42C3114.38 2767.39 3106.13 2766.42 3099.31 2763.51C3050.11 2742.29 3032.75 2706.66 3047.26 2656.64C3052.42 2638.87 3060.73 2625.44 3072.17 2616.33C3085.37 2605.72 3101.1 2600.24 3119.37 2599.89C3119.97 2599.87 3120.57 2599.91 3121.16 2599.99C3127.43 2600.85 3131.87 2606.85 3131.01 2613.26C3130.93 2613.85 3130.81 2614.43 3130.64 2615C3124.35 2636.84 3126.75 2655.05 3137.85 2669.63C3146.86 2681.56 3161.23 2688.68 3180.98 2690.98C3222.67 2696.02 3254.66 2680.86 3276.94 2645.5C3348.52 2531.64 3350.92 2412.27 3284.15 2287.37C3282.19 2283.65 3281.41 2279.34 3281.93 2275.03C3287.86 2230.31 3283.93 2186.42 3270.13 2143.37C3267.5 2135.24 3268.85 2132.46 3274.19 2135.02C3275.86 2135.91 3277.3 2137.31 3278.52 2139.26C3379.46 2300.32 3421.8 2471.54 3405.55 2652.92C3383.69 2896.19 3279.57 3093.7 3093.15 3245.48C3042.45 3286.76 2990.11 3311.07 2936.09 3318.41C2891.17 3324.41 2856.26 3311.25 2831.35 3278.89C2813.43 3255.65 2808.76 3232.31 2817.32 3208.88C2827.46 3181.3 2852.63 3167.21 2892.83 3166.59C2916.78 3166.32 2919.93 3174.41 2902.27 3190.85C2880.16 3211.54 2881.73 3229.17 2906.99 3243.76C2919.67 3251.01 2933.6 3253 2948.81 3249.72C2970.31 3245.04 2991.19 3235.89 3011.47 3222.28C3091.8 3168.35 3159.78 3104.36 3215.46 3030.28C3279.79 2944.63 3321.74 2846.28 3341.31 2735.26C3344.02 2719.52 3349.4 2704.73 3357.44 2690.84C3369.41 2669.99 3376.75 2644.87 3379.46 2615.53C3379.53 2614.7 3379.53 2613.85 3379.43 2613.01C3378.67 2605.92 3372.34 2600.72 3365.41 2601.48C3364.57 2601.57 3363.74 2601.76 3362.94 2602.01Z" fill="white"/>
<path d="M2082.3 2141.62C2124.86 2149.4 2143.48 2176.18 2138.14 2221.97C2138.12 2222.25 2138.05 2222.52 2137.97 2222.8C2137.24 2225.16 2134.72 2226.49 2132.39 2225.76C2132.11 2225.67 2131.84 2225.55 2131.59 2225.42C2113.33 2215.96 2096.72 2215.25 2081.77 2223.29C2066.3 2231.61 2058.27 2245.26 2057.65 2264.26C2057.13 2277.09 2060.14 2289.23 2066.7 2300.73C2076.57 2318.14 2082.13 2328.93 2083.35 2333.08C2100.39 2392.75 2074.86 2428.68 2006.79 2440.88C1984.67 2444.76 1981.66 2438.8 1997.74 2422.98C2006.13 2414.85 2007.7 2403.05 2002.46 2387.58C1998.7 2376.7 1992.41 2367.46 1983.58 2359.86C1957.1 2337.15 1928.82 2340.07 1898.76 2368.61C1883.73 2382.93 1871.33 2407.24 1861.53 2441.54C1843.27 2505.09 1835.93 2573.87 1839.51 2647.85C1840.18 2660.56 1836.06 2673.11 1827.97 2682.99C1818.89 2694.22 1811.94 2708.32 1807.13 2725.29C1805.91 2729.27 1803.81 2733.02 1800.84 2736.56C1784.75 2755.12 1778.72 2776.74 1782.74 2801.4C1783.49 2805.79 1785.93 2809.59 1789.43 2811.87C1799.83 2818.59 1806.21 2815.98 1808.57 2804.05C1809.26 2800.24 1809 2794.54 1807.78 2786.94C1805.95 2775.01 1806.91 2767.76 1810.67 2765.2C1820.47 2758.48 1827.99 2748.84 1832.17 2737.62C1848.51 2693.43 1872.45 2677.99 1904.01 2691.35C1904.51 2691.54 1904.96 2691.8 1905.41 2692.1C1908.86 2694.49 1909.72 2699.35 1907.34 2702.91C1907.05 2703.32 1906.72 2703.72 1906.37 2704.07C1895.18 2715.21 1888.97 2728.07 1887.75 2742.66C1882.6 2804.88 1895.88 2866.33 1927.6 2926.96C1929.72 2931.07 1929.51 2935.99 1927.08 2939.82C1900.69 2982.88 1884.83 3017.66 1879.49 3044.17C1878.61 3048.42 1876.91 3048.78 1874.38 3045.23C1728.86 2840.78 1687.57 2611.66 1750.49 2357.87C1761.24 2314.56 1778.68 2278.05 1802.8 2248.35C1817.66 2230.06 1833.39 2218.08 1850 2212.42C1867.83 2206.41 1888.32 2204.77 1911.48 2207.52C1917.41 2208.26 1923.27 2205.78 1926.82 2201.02C1966.06 2149.57 2017.89 2129.78 2082.3 2141.62Z" fill="white"/>
<path d="M2468.14 2776.09C2474.79 2756.2 2473.43 2738.3 2464.08 2722.39C2456.39 2709.56 2443.46 2699.71 2425.28 2692.82C2384.28 2677.08 2343.96 2682.57 2304.28 2709.26C2303.69 2709.64 2303.06 2709.96 2302.4 2710.19C2298.05 2711.71 2293.24 2709.35 2291.73 2704.95C2291.51 2704.29 2291.36 2703.6 2291.3 2702.9C2289.11 2671.6 2278.02 2647.11 2258 2629.44C2238.77 2612.47 2215.52 2606.14 2188.26 2610.48C2144.73 2617.37 2128.35 2648.13 2139.1 2702.76C2139.86 2706.38 2142.11 2710.23 2145.52 2713.77C2158.54 2727.39 2151.77 2738.16 2125.2 2746.12C2110.52 2750.54 2096.06 2749.83 2081.81 2744C2031.73 2723.31 2008 2685.3 2010.62 2629.97C2011.93 2602.66 2019.58 2581.53 2033.56 2566.59C2049.2 2549.71 2070.4 2541.62 2097.14 2542.33C2100.97 2542.42 2104.46 2540.07 2105.8 2536.49C2124.24 2484.16 2160.07 2460.29 2213.3 2464.89C2218.45 2465.33 2231.82 2470.06 2253.41 2479.08C2262.76 2482.96 2272.64 2484.95 2283.04 2485.05C2297.37 2485.14 2307.12 2485.88 2312.27 2487.3C2358.59 2500.47 2391.15 2530.62 2409.94 2577.73C2419.81 2602.3 2433.05 2623.83 2449.66 2642.3C2467.14 2661.66 2487.19 2664.93 2509.83 2652.11C2539.89 2635.23 2546.5 2611.41 2529.63 2580.64C2529.27 2580.01 2529.01 2579.32 2528.82 2578.62C2527.44 2573.64 2530.3 2568.42 2535.15 2567.05C2535.87 2566.86 2536.62 2566.74 2537.36 2566.72C2561.48 2565.83 2582.03 2573.92 2598.98 2590.99C2601.74 2593.68 2605.91 2594.33 2609.33 2592.58C2639.66 2577.1 2670.2 2571.8 2700.97 2576.67C2756.73 2585.51 2787.4 2618.34 2793 2675.18C2793.39 2679.15 2796.09 2682.6 2799.95 2684.07C2824.16 2692.91 2840.59 2709.88 2849.24 2734.98C2868.64 2791.03 2858.81 2833.54 2819.74 2862.54C2801.39 2876.15 2782.12 2882.96 2761.93 2882.96C2736.24 2882.96 2716.74 2871.73 2703.46 2849.28C2686.94 2821.61 2691.62 2799.65 2717.49 2783.38C2725.39 2778.54 2735.68 2780.3 2741.48 2787.49C2756.86 2806.41 2767.79 2812.99 2774.25 2807.25C2779.67 2802.38 2780.02 2794.29 2775.3 2782.98C2765.08 2758.41 2747.94 2747.98 2723.91 2751.69C2706.08 2754.51 2691.4 2763.62 2679.86 2779C2665.88 2797.66 2661.16 2818.61 2665.71 2841.85C2669.21 2859.45 2678.99 2876.95 2695.07 2894.36C2741.57 2944.65 2801.43 2970.29 2874.67 2971.26C3034.87 2973.56 3162.47 2912.22 3257.47 2787.22C3262.89 2780.16 3269.57 2774.59 3277.53 2770.52C3286.01 2766.1 3293.92 2761.73 3301.26 2757.39C3306.86 2753.94 3309.08 2755.49 3307.94 2762.03C3301.03 2800.48 3289.07 2836.02 3272.02 2868.64C3256.65 2898.16 3232.56 2925.52 3199.79 2950.71C3042.04 3072.07 2859.37 3125.3 2651.81 3110.35C2555.06 3103.36 2468.41 3074.99 2391.85 3025.23C2356.54 3002.33 2329.8 2978.2 2311.62 2952.83C2288.98 2921.28 2275.66 2886.5 2271.63 2848.48C2265.34 2788.02 2288.71 2745.95 2341.77 2722.25C2371.92 2708.73 2401.85 2709.13 2431.57 2723.45C2446.25 2730.51 2445.64 2735.82 2429.73 2739.36C2413.74 2742.98 2401.29 2751.73 2392.37 2765.61C2384.41 2777.98 2381.23 2791.9 2382.8 2807.38C2385.78 2835.93 2403.34 2851.7 2435.5 2854.71C2439.25 2855.06 2443.53 2853.98 2447.69 2851.66C2474.7 2836.28 2500.3 2844.46 2524.52 2876.19C2527.39 2879.95 2531.57 2882.41 2536.18 2883.09C2569.57 2887.69 2587.53 2899.66 2590.06 2919.02C2590.55 2922.63 2588.04 2926.21 2584.16 2927.51C2541.78 2941.65 2532.91 2969.18 2557.55 3010.11C2568.47 3028.05 2591.15 3040.48 2625.59 3047.37C2677.68 3057.81 2729.38 3056.43 2780.68 3043.26C2784.98 3042.17 2788.42 3039.43 2789.98 3035.84C2794.8 3024.7 2791.07 3018.6 2778.84 3017.54C2774.48 3017.18 2768.58 3018.03 2761.14 3020.06C2695.43 3038.18 2635.78 3030.97 2582.2 2998.44C2566.47 2988.9 2564.07 2978.02 2574.99 2965.83C2577.43 2963.13 2581.71 2962.39 2585.74 2963.97C2602.09 2970.24 2612.13 2963.8 2615.89 2944.61C2625.07 2898.11 2603.92 2868.9 2552.44 2856.97C2548.15 2855.92 2544.21 2853.73 2541.03 2850.6C2509.22 2819.22 2476.05 2810.96 2441.53 2825.81C2437.05 2827.69 2432.59 2828.21 2428.95 2827.27C2414.7 2823.55 2407.62 2814.98 2407.71 2801.54C2407.71 2790.67 2411.29 2781.3 2418.46 2773.43C2428.78 2762.3 2441.05 2764.15 2455.3 2779C2455.72 2779.44 2456.19 2779.83 2456.7 2780.16C2460.28 2782.44 2465.1 2781.35 2467.37 2777.72C2467.69 2777.21 2467.95 2776.66 2468.14 2776.09Z" fill="white"/>
<path d="M2195.46 3259.63C2203.68 3254.07 2205.2 3246.6 2200.05 3237.23C2195.24 3228.57 2192.67 3223.74 2192.31 3222.77C2176.06 3179.11 2181.04 3141.4 2207.26 3109.67C2222.29 3091.55 2239.99 3082.32 2260.35 3081.96C2281.06 3081.52 2299.68 3089.39 2316.2 3105.56C2316.24 3105.6 2316.26 3105.63 2316.3 3105.67C2318.69 3108.08 2318.57 3112.19 2316.03 3114.76C2315.99 3114.79 2315.96 3114.82 2315.94 3114.84C2280.37 3148.79 2276.04 3183.35 2302.96 3218.53C2313.97 3232.85 2326.46 3239.84 2340.45 3239.48C2358.28 3239.12 2371.39 3228.12 2379.78 3206.46C2398.13 3159.09 2425.53 3145.51 2461.98 3165.76C2486.45 3179.38 2502.71 3189.49 2510.74 3196.12C2525.52 3208.49 2532.99 3226.05 2533.16 3248.76C2533.16 3249.07 2533.12 3249.36 2533.04 3249.65C2532.52 3251.84 2530.3 3253.2 2528.14 3252.67C2527.84 3252.59 2527.54 3252.49 2527.26 3252.34C2480.76 3229.01 2454.07 3238.02 2447.16 3279.39C2444.02 3298.22 2448.57 3314.22 2460.8 3327.39C2473.21 3340.74 2488.81 3350.06 2507.6 3355.37C2611.07 3384.89 2713.02 3379.99 2813.44 3340.65C2841.07 3329.78 2871.22 3332.65 2903.9 3349.27C2909.31 3352.09 2909.27 3354.8 2903.77 3357.35C2849.5 3382.91 2792.73 3401.51 2733.48 3413.18C2678.51 3423.96 2619.42 3427.93 2556.23 3425.11C2364.48 3416.36 2190.35 3352.85 2033.82 3234.57C1990.73 3201.96 1955.86 3162.05 1929.2 3114.84C1900.1 3063.3 1904.34 3016.72 1941.92 2975.09C1944.8 2971.91 1946.86 2968.16 1948.08 2963.82C1958.66 2926.26 1982.21 2901.41 2018.74 2889.3C2022.75 2888 2026.28 2885.4 2028.84 2881.88C2057.42 2842.37 2093.82 2835.78 2138.04 2862.12C2171.25 2881.75 2182.13 2911.88 2170.68 2952.55C2170.6 2952.83 2170.5 2953.11 2170.38 2953.38C2168.95 2956.71 2165.05 2958.25 2161.75 2956.81C2161.49 2956.69 2161.23 2956.55 2160.98 2956.39C2124.8 2933.85 2094.78 2939.6 2070.92 2973.63C2062.88 2985.13 2057.38 2999.85 2054.4 3017.79C2051.95 3032.28 2052.08 3047.62 2054.79 3063.79C2064.32 3122.14 2093.86 3166.73 2143.41 3197.58C2154.18 3204.21 2161.99 3214.82 2165.18 3227.15C2169.02 3241.64 2175.36 3252.34 2184.19 3259.24C2187.57 3261.77 2192.1 3261.93 2195.46 3259.63Z" fill="white"/>
<path d="M2946.32 2593C2946.32 2608.36 2933.84 2620.98 2918.66 2620.98C2903.47 2620.98 2890.99 2608.36 2890.99 2593C2890.99 2577.65 2903.47 2565.03 2918.66 2565.03C2933.84 2565.03 2946.32 2577.65 2946.32 2593Z" fill="#F6F6F6"/>
<path d="M2999.75 2829.63C2999.75 2840.9 2990.57 2850.18 2979.43 2850.18C2968.29 2850.18 2959.11 2840.9 2959.11 2829.63C2959.11 2818.36 2968.29 2809.07 2979.43 2809.07C2990.57 2809.07 2999.75 2818.36 2999.75 2829.63Z" fill="#F6F6F6"/>
<path d="M2691.21 3233.38C2691.21 3244.59 2682.1 3253.8 2671.02 3253.8C2659.95 3253.8 2650.83 3244.59 2650.83 3233.38C2650.83 3222.18 2659.95 3212.96 2671.02 3212.96C2682.1 3212.96 2691.21 3222.18 2691.21 3233.38Z" fill="#F6F6F6"/>
<path d="M2339.49 2007.18C2345.87 2029.46 2361.25 2042.49 2385.64 2046.3C2440.52 2054.95 2475.7 2033.96 2491.17 1983.31C2494.75 1971.55 2499.52 1961.79 2505.46 1954.01C2515.68 1940.49 2521.45 1931.74 2522.76 1927.76C2529.93 1905.84 2529.22 1883.56 2520.66 1860.93C2520.58 1860.72 2520.52 1860.51 2520.47 1860.29C2519.86 1857.67 2521.5 1855.02 2524.1 1854.41C2524.31 1854.35 2524.52 1854.33 2524.73 1854.3C2615.09 1846.44 2701.09 1859.43 2782.72 1893.28C2823.72 1910.26 2855.22 1931.17 2877.24 1956C2904.08 1986.23 2921.33 2021.67 2929.03 2062.34C2936.01 2099.56 2933.48 2130.36 2921.42 2154.76C2904.38 2189.23 2871.3 2202.79 2822.18 2195.46C2801.3 2192.37 2793.64 2181.31 2799.24 2162.31C2802.65 2150.74 2813.49 2151.18 2831.75 2163.64C2835.36 2166.04 2840.17 2165.59 2843.29 2162.58C2868.11 2138.71 2880.04 2110.7 2879.08 2078.52C2878.29 2050.05 2868.5 2023.62 2849.71 1999.23C2818.87 1959.27 2774.99 1945.39 2718.09 1957.59C2691.52 1963.33 2671.2 1979.6 2657.13 2006.38C2655.34 2009.81 2651.52 2011.68 2647.7 2011.03C2607.32 2004.49 2577.26 2016.5 2557.5 2047.09C2543.34 2069.19 2537.09 2097.04 2538.75 2130.62C2539.54 2147.33 2538.14 2159.36 2534.56 2166.69C2526.08 2183.66 2512.54 2185.48 2493.92 2172.13C2490.76 2169.88 2488.15 2166.32 2486.45 2161.92C2465.21 2105.96 2418.06 2085.64 2345 2100.92C2336.17 2102.69 2327.34 2102.61 2318.51 2100.66C2286.7 2093.59 2258.64 2104.86 2234.35 2134.47C2203.67 2171.86 2196.11 2214.02 2211.67 2260.96C2230.72 2318.34 2267.95 2344.23 2323.36 2338.66C2331.06 2337.92 2337.02 2331.36 2337.13 2323.55C2337.3 2296.76 2346.31 2291.37 2364.14 2307.37C2373.57 2315.76 2381.31 2331.77 2387.34 2355.37C2393.72 2379.94 2399.31 2396.43 2404.12 2404.83C2427.28 2445.23 2463.15 2465.91 2511.75 2466.88C2517.16 2467.05 2528.92 2465.55 2547.01 2462.37C2556.71 2460.69 2566.51 2460.02 2576.38 2460.38C2580.48 2460.47 2584.64 2461.91 2588.31 2464.49C2674.48 2524.95 2761.84 2526.81 2850.37 2470.06C2853.79 2467.85 2858.12 2467.59 2861.77 2469.4C2869.73 2473.38 2877.81 2477.22 2886.03 2480.93C2893.28 2484.21 2901.89 2486.1 2911.85 2486.64C2930.3 2487.7 2948.13 2491.5 2965.34 2498.04C2989.37 2507.15 3006.67 2512 3017.25 2512.62C3077.73 2516.43 3131.48 2497.68 3178.5 2456.4C3219.67 2420.43 3249.46 2376.54 3267.91 2324.74C3269.91 2319.17 3272.1 2319.13 3274.46 2324.61C3318.08 2427.5 3313.44 2527.83 3260.57 2625.59C3246.24 2652.11 3222.02 2665.06 3187.94 2664.44C3172.12 2664.08 3161.81 2659.14 3157 2649.59C3151.23 2638.1 3154.77 2623.91 3167.62 2607.03C3167.71 2606.9 3167.8 2606.78 3167.9 2606.64C3171.33 2601.7 3170.12 2594.78 3165.23 2591.32C3165.06 2591.2 3164.91 2591.09 3164.74 2590.99C3135.99 2572.86 3108.72 2568.75 3082.93 2578.65C3060.21 2587.41 3041.99 2604.55 3028.27 2630.1C3007.46 2669.08 3012.05 2710.05 3042.03 2753.01C3060.29 2779.17 3085.29 2793.95 3117.02 2797.3C3138.08 2799.51 3162.51 2804.29 3190.3 2811.62C3196.07 2813.12 3196.82 2816 3192.53 2820.24C3101.19 2909.96 2989.76 2950.22 2858.23 2941.03C2825.37 2938.74 2795.14 2931.35 2767.52 2918.89C2756.15 2913.76 2756.67 2910.44 2769.09 2908.94C2833.06 2901.42 2870.65 2868.28 2881.83 2809.5C2893.63 2747.62 2875.54 2699.94 2827.56 2666.43C2824.06 2664.02 2821.41 2660.58 2819.95 2656.62C2784.21 2559.65 2716 2527.87 2615.31 2561.28C2611.51 2562.53 2607.28 2561.84 2603.91 2559.43C2570.09 2534.67 2536.04 2535.34 2501.79 2561.42C2488.06 2571.85 2489.69 2583.39 2506.64 2596.02C2507.36 2596.55 2508.03 2597.15 2508.66 2597.79C2514.93 2604.28 2514.83 2614.87 2508.41 2621.23C2507.78 2621.85 2507.1 2622.42 2506.37 2622.94C2486.28 2637.26 2470.89 2633.68 2460.23 2612.2C2448.43 2588.51 2435.88 2565.22 2422.6 2542.32C2394.55 2493.8 2346.14 2464.45 2277.35 2454.28C2272.89 2453.66 2268.53 2452.65 2264.24 2451.23C2181.03 2424.89 2121.18 2444.83 2084.64 2511.03C2082.56 2514.73 2079.02 2517.34 2074.94 2518.19C2012.45 2530.56 1981.86 2568.84 1983.17 2633.02C1984.92 2719.64 2026.13 2766.8 2106.79 2774.49C2125.58 2776.26 2141.1 2774.14 2153.33 2768.13C2169.07 2760.44 2180.47 2748.24 2187.55 2731.53C2190.96 2723.3 2187.72 2713.71 2180.08 2709.39C2167.06 2701.97 2160.06 2692.15 2159.1 2679.96C2158.22 2669.52 2162.03 2659.63 2170.51 2650.25C2182.4 2637.17 2197.08 2632.53 2214.56 2636.33C2227.93 2639.25 2239.2 2647.34 2248.38 2660.6C2266.99 2687.47 2271.94 2716.46 2263.19 2747.58C2252.44 2785.59 2247.07 2804.82 2247.07 2805.26C2239.9 2867.57 2253.79 2921.5 2288.76 2967.02C2351.07 3047.99 2438.3 3099.7 2550.42 3122.15C2785.25 3169.09 3004.01 3122.38 3206.69 2982C3213.07 2977.67 3214.07 2978.69 3209.7 2985.05C3150.88 3070.44 3083.16 3140.22 3006.5 3194.41C2984.31 3210.06 2959.97 3220.44 2933.48 3225.57C2926.14 3226.99 2921.99 3225.27 2921.03 3220.4C2921.02 3220.34 2921 3220.28 2921 3220.22C2920.52 3217.13 2923.44 3214.05 2927.49 3213.4C2927.57 3213.4 2927.64 3213.39 2927.72 3213.37C2948 3210.82 2955.15 3200.42 2949.22 3182.22C2946.16 3172.67 2939.95 3164.18 2930.6 3156.76C2899.83 3132.19 2867.8 3130.81 2834.51 3152.65C2778.14 3189.51 2770.36 3238.34 2811.17 3299.16C2811.42 3299.52 2811.64 3299.9 2811.85 3300.3C2814.42 3305.34 2812.39 3311.67 2807.33 3314.29C2806.96 3314.49 2806.58 3314.66 2806.19 3314.81C2742.74 3338.85 2674.87 3349.99 2602.6 3348.22C2560.65 3347.25 2521.58 3336.2 2485.4 3315.07C2464.69 3302.97 2460.88 3289.71 2473.99 3275.3C2486.58 3261.33 2497.5 3262.96 2506.77 3280.2C2519.26 3303.54 2531.28 3305.22 2542.82 3285.24C2566.15 3244.49 2561.21 3208.03 2528 3175.85C2518.66 3166.74 2502.83 3156.63 2480.55 3145.49C2460.98 3135.68 2443.19 3131.43 2427.19 3132.76C2389.44 3135.85 2365.62 3157.46 2355.75 3197.6C2354.57 3202.29 2352.27 3206.11 2349.32 3208.34C2337.09 3217.45 2327.34 3213.15 2320.09 3195.48C2305.5 3159.58 2316.46 3140.89 2352.99 3139.39C2353.65 3139.36 2354.29 3139.27 2354.92 3139.11C2360.58 3137.76 2364.15 3131.92 2362.81 3126.2C2362.65 3125.53 2362.44 3124.9 2362.17 3124.27C2353.08 3103.85 2339.58 3087.45 2321.66 3075.08C2305.4 3063.77 2286.09 3058.24 2263.72 3058.51C2200.53 3059.3 2163.82 3095.14 2153.6 3166.04C2153.56 3166.37 2153.46 3166.7 2153.35 3167.01C2152.53 3168.96 2150.24 3169.86 2148.25 3169.02C2147.96 3168.89 2147.68 3168.74 2147.43 3168.56C2092.64 3128.08 2072.28 3075.31 2086.34 3010.24C2090.01 2993.1 2097.58 2980.9 2109.02 2973.65C2128.33 2961.45 2144.98 2968.91 2158.97 2996.06C2165.09 3008.08 2171.73 3008.39 2178.9 2996.98C2205.81 2954.12 2209.74 2914.64 2190.7 2878.58C2174.09 2847.19 2148.26 2827.62 2113.22 2819.84C2074.77 2811.35 2040.5 2824.71 2010.44 2859.88C2007.61 2863.11 2003.9 2865.57 1999.69 2867.04C1982.56 2872.88 1967.87 2882.42 1955.64 2895.68C1955.5 2895.83 1955.35 2895.96 1955.2 2896.09C1952.99 2897.96 1949.73 2897.74 1947.99 2895.62C1947.87 2895.47 1947.75 2895.31 1947.64 2895.15C1921.33 2854.22 1908.32 2806.71 1908.58 2752.62C1908.67 2736.17 1916.84 2727.33 1933.09 2726.1C1951.62 2724.6 1954.33 2713.41 1941.22 2692.55C1926.11 2668.51 1903.16 2656.39 1872.4 2656.22C1868.69 2656.22 1865.59 2653.15 1865.45 2649.33C1862.92 2587.1 1867.51 2527.61 1879.21 2470.86C1884.72 2444.07 1897 2416.53 1916.05 2388.25C1926.89 2372.08 1941.35 2367.47 1959.44 2374.46C1981.47 2382.95 1977.89 2401.64 1948.69 2430.55C1948.14 2431.09 1947.66 2431.7 1947.23 2432.35C1943.71 2437.68 1945.15 2444.99 1950.42 2448.53C1951.08 2448.98 1951.77 2449.35 1952.5 2449.64C1996.9 2467.5 2034.65 2467.67 2065.76 2450.17C2094.69 2433.82 2110.99 2409.2 2114.66 2376.32C2117.9 2346.62 2109.02 2314.97 2088.05 2281.38C2080.97 2270.06 2083.93 2254.9 2094.73 2247.04C2110.11 2235.81 2118.55 2242.13 2120.04 2266C2120.99 2281.74 2127.55 2284.66 2139.7 2274.75C2154.47 2262.73 2163.82 2247.21 2167.75 2228.21C2171.25 2211.86 2168.76 2194.97 2160.28 2177.56C2133.01 2121.44 2081.76 2100.35 2006.51 2114.32C2000.38 2115.47 1999.13 2113.43 2002.7 2108.22C2074.02 2003.73 2172.38 1946.63 2297.8 1936.91C2313.62 1935.67 2330.75 1938.19 2349.19 1944.46C2361.78 1948.8 2370.73 1955.77 2376.07 1965.41C2387.51 1986.1 2377.02 1997.73 2344.6 2000.29C2344.43 2000.3 2344.25 2000.33 2344.08 2000.37C2340.96 2000.95 2338.83 2003.77 2339.36 2006.64C2339.4 2006.82 2339.44 2007.01 2339.49 2007.18ZM2253.1 2045.5C2253.1 2020.11 2232.45 1999.23 2207.35 1999.23C2182.24 1999.23 2161.59 2020.11 2161.59 2045.5C2161.59 2070.89 2182.24 2091.77 2207.35 2091.77C2232.45 2091.77 2253.1 2070.89 2253.1 2045.5ZM2970.45 2592.58C2970.45 2563.55 2946.84 2539.67 2918.15 2539.67C2889.45 2539.67 2865.84 2563.55 2865.84 2592.58C2865.84 2621.6 2889.45 2645.48 2918.15 2645.48C2946.84 2645.48 2970.45 2621.6 2970.45 2592.58ZM3024.73 2830.18C3024.73 2804.94 3004.2 2784.17 2979.24 2784.17C2954.28 2784.17 2933.75 2804.94 2933.75 2830.18C2933.75 2855.43 2954.28 2876.19 2979.24 2876.19C3004.2 2876.19 3024.73 2855.43 3024.73 2830.18ZM2716.91 3233.66C2716.91 3208.42 2696.38 3187.65 2671.42 3187.65C2646.46 3187.65 2625.93 3208.42 2625.93 3233.66C2625.93 3258.91 2646.46 3279.67 2671.42 3279.67C2696.38 3279.67 2716.91 3258.91 2716.91 3233.66Z" fill="#474747"/>
</g>
</g>
<circle opacity="0.8" cx="2568.5" cy="2563.5" r="1010" stroke="#BE2626" stroke-width="131"/>
<mask id="mask1_3848_2318" style="mask-type:luminance" maskUnits="userSpaceOnUse" x="1781" y="1913" width="1644" height="1506">
<path d="M3425 2666.43C3425 3082.02 3056.98 3418.93 2603 3418.93C2149.02 3418.93 1781 3082.02 1781 2666.43C1781 2250.84 2149.02 1913.93 2603 1913.93C3056.98 1913.93 3425 2250.84 3425 2666.43Z" fill="white"/>
</mask>
<g mask="url(#mask1_3848_2318)">
<path d="M2514.13 2271.89C2519.04 2234.33 2577.77 2141.52 2581.68 2161.41C2584.96 2172.07 2588.01 2181.37 2589.86 2189.73C2594.75 2211.91 2584.33 2262.3 2553.42 2278.62M2410.29 2580.56C2425.57 2537.25 2441.16 2476.93 2478.17 2425.58C2489.01 2447.87 2529.94 2548.88 2410.29 2580.56ZM3235.05 3571.75C3182.16 3577.17 3157.72 3545.15 3136.42 3510.93C3065.95 3397.66 2999.21 3282.05 2953.93 3153.07C2943.16 3162.58 2932.91 3171.63 2922.66 3180.67C2914.18 3186.72 2906.02 3191.92 2906.82 3174.31C2930.72 3109.12 2930.89 3033.97 2986.59 2981.87C2991.76 2977.04 2992.64 2964.12 2991.06 2955.81C2968.81 2837.83 2948.18 2719.27 2891.17 2611.61C2884.39 2598.81 2875.69 2587.04 2868.39 2574.48C2799.15 2455.22 2751.82 2331.14 2789.83 2189.73C2797.33 2161.77 2781.85 2140.55 2774.75 2116.73C2771.51 2105.87 2765.34 2094.55 2753.38 2095.68C2741.73 2096.78 2736.06 2109 2734.69 2119.91C2731.57 2144.57 2727.86 2168.45 2707.05 2190.31C2686.61 2155.61 2692 2123.51 2696.52 2091.48C2702.46 2049.56 2694.83 2012.61 2662.76 1981.93C2619.18 1940.23 2602.2 1943.2 2589.62 2003.17C2575.16 2072.03 2557.15 2136.64 2498.64 2183.06C2484.43 2194.33 2474.61 2216.37 2470.81 2235.13C2452.02 2327.71 2431.27 2419.17 2398.3 2508.27C2385.4 2543.13 2358.23 2602.8 2380.96 2617.5C2410.03 2636.3 2455.4 2598.36 2490.82 2575.87C2493.81 2593.58 2483.29 2604.62 2473.94 2609.94C2405.54 2648.92 2384.26 2725.95 2336.46 2781.36C2329.08 2789.92 2312.73 2806.78 2326.43 2812.37C2377.63 2833.23 2335.97 2851.84 2324.95 2864.26C2244.38 2955.15 2134.93 3009.83 2044.44 3089.01C2007.34 3121.47 1957.25 3140.07 1911.07 3160.34C1801.94 3208.24 1712.08 3275.01 1659.22 3387.72C1637.02 3435.06 1604.28 3477.6 1574.4 3520.96C1509.73 3614.79 1421.46 3666.63 1307.48 3675.38C1246.17 3680.06 1185.53 3691.53 1133.73 3729.68C1124.1 3736.77 1103.91 3743.36 1111.82 3755.23C1134.83 3789.75 1103.7 3793.86 1087.74 3805.85C1011.9 3862.8 971.497 3937.72 966.285 4041.85C1033.61 3978.07 1106.95 3960.93 1187.35 3964.86C1217.83 3966.33 1248.44 3965.04 1279 3964.96C1318.68 3964.85 1348.06 3950.79 1360.87 3908.91C1376.34 3858.32 1406.89 3821.68 1455.28 3796.53C1529.69 3757.89 1587.38 3697.74 1642.01 3617.62C1632.73 3688.37 1629.41 3711.74 1571.38 3749.3C1457.91 3822.76 1418.86 3922.57 1424.88 4054.6C1427.97 4122.37 1406.98 4191.26 1396.85 4259.63C1391.21 4297.74 1395.31 4321.55 1442.8 4298.93C1472.06 4285 1504.28 4277.58 1534.62 4265.79C1551.46 4259.25 1577.35 4261.35 1574.62 4231.37C1572.15 4204.2 1572.41 4172.93 1541 4163.01C1508.02 4152.6 1506.69 4128.85 1509.31 4102.79C1520.17 3994.64 1555.53 3901.44 1670.8 3868.56C1805.47 3830.14 1888.07 3739.38 1938.09 3611.91C1948.04 3586.54 1960.52 3561.79 1974.88 3538.69C2022.32 3462.39 2080.54 3396.89 2161.28 3354.91C2135.13 3399.27 2090.84 3431.31 2077.79 3494.13C2179.47 3447.58 2276.1 3458.55 2373.59 3481.64C2427.31 3494.36 2480.88 3489.57 2532.41 3467.33C2546.5 3461.24 2560.05 3455.44 2556.49 3436.86C2548.24 3393.68 2543.6 3341.96 2513.34 3315.01C2467.73 3274.4 2474.79 3216.3 2444.02 3173.01C2514.31 3233.13 2556.37 3312.34 2596.53 3392.38C2650.49 3499.9 2705.27 3608.31 2725.69 3728.02C2745.86 3846.17 2741.68 3847.72 2849.64 3808.33C2867.13 3801.94 2900.52 3807.42 2896.82 3775.86C2893.53 3747.74 2883.28 3714.3 2852.26 3706.75C2828.39 3700.93 2820.17 3689.19 2812.98 3669.28C2785.69 3593.68 2760.19 3517.4 2745.78 3438.23C2729.96 3351.04 2721.83 3263.79 2783.62 3188.03C2816.74 3169.58 2797.78 3201.4 2803.66 3209.25C2802.77 3214.5 2801.69 3219.73 2801.03 3225.01C2794.86 3274.38 2766.53 3333.7 2852.8 3341.59C2858.86 3342.15 2864.56 3349.54 2869.92 3354.32C2956.21 3431.34 3032.47 3517.35 3103.32 3609.2C3125.89 3638.47 3116.83 3698.21 3165.7 3696.89C3205.2 3695.82 3244.12 3672.23 3283.28 3658.6C3288.37 3656.81 3294.31 3655.85 3298.14 3652.5C3301.39 3649.67 3305.03 3642.13 3303.58 3639.76C3286.08 3611.12 3273.49 3567.82 3235.05 3571.75Z" fill="white"/>
<path fill-rule="evenodd" clip-rule="evenodd" d="M2522.44 2295.51C2522.44 2295.51 2542.93 2243.76 2569.04 2227.25C2569.04 2227.25 2584.48 2260.57 2557.81 2280.11C2531.14 2299.65 2527.05 2293.19 2522.44 2295.51Z" fill="#BE2626"/>
<path fill-rule="evenodd" clip-rule="evenodd" d="M2037.91 2760.61C2037.91 2760.61 2079.15 2692.21 2160.41 2624.2C2201.59 2589.74 2253.07 2555.49 2314.8 2530.44C2355.69 2513.86 2385.35 2494.78 2407.81 2475.02C2457.57 2431.26 2471.47 2383.38 2488.3 2345.82C2498.71 2322.59 2510.33 2316.61 2515.54 2308.2C2528.72 2305.4 2558.82 2264.03 2556.05 2250.7C2553.27 2237.37 2544.7 2247.9 2531.52 2250.7C2482.19 2263 2463.46 2291.18 2449.3 2329.54C2436.46 2364.33 2427.86 2408.73 2385.82 2451.15C2366.64 2470.51 2340.76 2489.52 2304.64 2507.16C2242.79 2537.37 2192.08 2576.23 2152.06 2614.68C2074.85 2688.87 2037.91 2760.61 2037.91 2760.61Z" fill="#BE2626"/>
</g>
</svg>
