<svg width="5000" height="5000" viewBox="0 0 5000 5000" fill="none" xmlns="http://www.w3.org/2000/svg">
<g clip-path="url(#clip0_3848_2382)">
<path d="M2542.23 1863.84C2548.68 1853.37 2557.25 1843.77 2567.92 1835.08C2581.39 1824.17 2583.46 1825.96 2574.16 1840.41C2567.81 1850.24 2560.78 1860.04 2553.07 1869.82C2551.37 1871.81 2549.55 1873.22 2547.59 1874.04C2542.92 1875.9 2540.41 1874.89 2540.05 1871.04C2539.89 1868.86 2540.62 1866.46 2542.23 1863.84ZM2498 1788.77C2513.23 1785.27 2513.54 1787.79 2498.94 1796.33C2495.75 1798.22 2492.08 1798.85 2488.74 1798.08C2478.83 1795.65 2481.91 1792.55 2498 1788.77ZM2415.28 1903.71C2415.44 1903.69 2415.59 1903.67 2415.75 1903.66C2425.24 1902.74 2427.47 1905.19 2422.44 1911.04C2420.74 1913.03 2418.69 1914.17 2416.29 1914.43C2412.18 1914.91 2409.79 1913.64 2409.1 1910.63C2409.07 1910.51 2409.05 1910.4 2409.03 1910.28C2408.61 1907.2 2411.44 1904.23 2415.28 1903.71ZM1968.48 3357.95L1923.03 3266.8C1922.74 3266.22 1922.5 3265.62 1922.33 3264.99C1920.83 3259.66 1924.03 3254.05 1929.43 3252.58C1930.05 3252.4 1930.69 3252.29 1931.33 3252.24C1941.27 3251.53 1950.59 3254.21 1959.29 3260.32C1962.05 3262.18 1963.02 3266.04 1961.57 3269.53C1955.97 3282.45 1955.27 3295.62 1959.46 3308.98C1964.31 3324.93 1967.96 3341.08 1970.43 3357.47C1970.96 3361.63 1970.32 3361.79 1968.48 3357.95ZM2279.08 3431.95C2281.6 3430.96 2284.04 3431.33 2286.38 3433.1C2289.13 3435.19 2289.34 3439.56 2286.84 3442.82C2280.31 3451.49 2276.23 3451.11 2274.61 3441.7C2273.93 3437.3 2275.8 3433.22 2279.08 3431.95ZM2242.04 3341.43C2245.56 3340.97 2249.49 3348.3 2250.75 3357.67C2252.02 3367.03 2250.17 3375.14 2246.64 3375.6C2243.12 3376.06 2239.19 3368.73 2237.93 3359.37V3359.35C2236.66 3349.99 2238.52 3341.89 2242.04 3341.43ZM2172.14 3403.82C2174.53 3406.95 2175.14 3411.01 2173.74 3414.5C2169.54 3425.26 2166.16 3424.75 2163.58 3412.94C2159.44 3393.95 2162.29 3390.91 2172.14 3403.82ZM2157.48 3461.29C2157.96 3453.67 2162.68 3447.67 2167.92 3448C2173.17 3448.32 2177.1 3454.86 2176.62 3462.48C2176.13 3470.09 2171.41 3476.09 2166.17 3475.76C2160.92 3475.44 2156.99 3468.91 2157.48 3461.29ZM2217.16 2013.26C2243.14 1965.26 2277.46 1924.07 2320.15 1889.7C2321.41 1888.61 2322.56 1887.31 2323.59 1885.81C2329.49 1876.62 2331.47 1876.2 2329.52 1884.52C2329.2 1885.97 2328.47 1887.3 2327.34 1888.52C2281.2 1935.57 2244.28 1991.39 2216.59 2055.96C2213.93 2062.22 2212.46 2061.93 2212.18 2055.11C2211.32 2034.91 2212.98 2020.96 2217.16 2013.26ZM2045.97 2358.52C2047.85 2351.63 2048.73 2344.67 2048.59 2337.63C2047.66 2295.66 2051.37 2260.2 2059.75 2231.24C2060.94 2227.07 2063.44 2223.7 2066.68 2221.92C2075.26 2217.24 2076.66 2222.62 2070.86 2238.06C2068.31 2244.85 2066.64 2251.88 2065.85 2259.17C2062.71 2290.37 2069.65 2319.47 2086.66 2346.5C2088.75 2349.73 2089.64 2353.69 2089.15 2357.69C2086.66 2378.74 2093.66 2396.22 2110.11 2410.12C2148.04 2442.14 2187.36 2472.43 2228.09 2500.97C2232.62 2504.12 2232.62 2506.37 2228.09 2507.75C2224.87 2508.73 2221.39 2507.96 2217.62 2505.46C2176.49 2478.34 2133.15 2455.43 2087.63 2436.71C2067.34 2428.39 2054.57 2419.49 2049.36 2410.01C2041.63 2395.99 2040.51 2378.84 2045.97 2358.52ZM1921.24 2164.2C1924.71 2164.21 1927.53 2180.78 1927.45 2200.9C1927.39 2221.02 1924.46 2237.58 1920.97 2237.56C1917.5 2237.55 1914.68 2220.99 1914.76 2200.86C1914.82 2180.74 1917.75 2164.18 1921.24 2164.2ZM1917.09 2286.37C1919.02 2282.65 1919.69 2282.84 1919.12 2286.94L1903.44 2388.36C1902.78 2392.79 1901.87 2392.79 1900.72 2388.37C1892.32 2356.25 1897.77 2322.26 1917.09 2286.37ZM1881.54 2479.85C1871.46 2467.15 1873.8 2463.96 1888.54 2470.3C1908.02 2478.73 1921.41 2497.5 1928.71 2526.58C1931.71 2538.68 1929.29 2539.79 1921.41 2529.91L1881.54 2479.85ZM1925.16 2647.51C1923.85 2651.76 1921.53 2655.24 1918.16 2657.97C1908.72 2665.65 1904.87 2660.68 1906.63 2643.1C1907.95 2630.67 1909.93 2619.8 1912.6 2610.48C1915.2 2601.39 1918.45 2601.2 1922.34 2609.88C1928 2622.63 1928.94 2635.18 1925.16 2647.51ZM1949.2 2976.79C1950.06 2971.65 1953.22 2968.28 1958.69 2966.65C1959.16 2966.51 1959.64 2966.4 1960.14 2966.35C1964.74 2965.8 1969 2969.1 1969.56 2973.66C1969.61 2974.13 1969.62 2974.6 1969.6 2975.08C1968.08 3002.12 1962.25 3006.67 1952.12 2988.73C1949.52 2984.26 1948.55 2980.28 1949.2 2976.79ZM2085.38 3040.61C2088.72 3039.76 2092.21 3039.93 2095.84 3041.11C2121.85 3049.67 2120.99 3054.33 2093.26 3055.1C2089.9 3055.24 2087.12 3057.93 2086.81 3061.36C2086.26 3067.51 2084.36 3073.12 2081.1 3078.18C2080.95 3078.41 2080.78 3078.63 2080.59 3078.82C2078.84 3080.64 2075.83 3080.62 2073.89 3078.82C2073.69 3078.62 2073.5 3078.41 2073.34 3078.19C2058.48 3058.67 2062.49 3046.15 2085.38 3040.61ZM2040.17 3125.51L2043.09 3123.64C2043.9 3123.12 2044.9 3122.98 2045.83 3123.24C2046.61 3123.46 2047.3 3123.96 2047.74 3124.63L2117.72 3232.05C2118.72 3233.58 2118.27 3235.66 2116.72 3236.64L2113.79 3238.51C2112.98 3239.03 2111.98 3239.17 2111.05 3238.91C2110.27 3238.69 2109.59 3238.19 2109.15 3237.52L2039.16 3130.1C2038.17 3128.57 2038.62 3126.49 2040.17 3125.51ZM2084.92 3305.84C2085.27 3317.62 2081.86 3318.8 2074.72 3309.38C2060.19 3290.56 2050.17 3288.05 2044.67 3301.87C2040.82 3311.37 2037.14 3311.31 2033.59 3301.71C2031.58 3296.38 2028.05 3292.57 2023.01 3290.3C2022.69 3290.15 2022.36 3290.03 2022.02 3289.97C2019.86 3289.6 2017.75 3291.2 2017.33 3293.52C2017.27 3293.88 2017.24 3294.23 2017.26 3294.58C2018.07 3310.76 2020.91 3326.6 2025.78 3342.13C2030.89 3358.05 2029.73 3360.29 2022.31 3348.83C2009.53 3328.97 1999.94 3305.98 1993.53 3279.88C1988.11 3257.8 1996.86 3247.89 2019.76 3250.12C2062.27 3254.34 2083.99 3272.91 2084.92 3305.84ZM1956.53 2715.56C1958.89 2706.53 1963.65 2699.83 1967.1 2700.71C1970.53 2701.59 1971.42 2709.73 1969.06 2718.76C1966.7 2727.78 1961.94 2734.48 1958.49 2733.61C1955.06 2732.72 1954.17 2724.58 1956.53 2715.56ZM2214.69 2988.89C2214.69 2988.89 2214.63 2988.97 2214.61 2989.01C2210.97 2994.48 2205.95 2996.35 2199.54 2994.65C2195.92 2993.71 2192.98 2990.58 2191.91 2986.5C2188.12 2972.04 2195.16 2970.48 2213.05 2981.79C2213.07 2981.81 2213.09 2981.82 2213.11 2981.84C2215.5 2983.39 2216.22 2986.57 2214.69 2988.89ZM1840.2 2966.53C1850.32 2977.21 1862.57 2990.65 1876.96 3006.85C1893.7 3025.78 1916.52 3048.08 1945.4 3073.73C1971.67 3097.04 1993.79 3120.11 2011.74 3142.96C2030.87 3167.42 2030.43 3186.74 2010.42 3200.93C1999.71 3208.52 1984.41 3212.72 1964.51 3213.55C1930.4 3214.91 1896.56 3211.33 1862.95 3202.78C1862.77 3202.73 1862.58 3202.69 1862.4 3202.65C1858.25 3201.83 1854.39 3203.27 1853.87 3205.85C1853.84 3205.97 1853.83 3206.11 1853.82 3206.24C1853.53 3209.06 1855.69 3211.75 1860.3 3214.32C1877.18 3223.74 1891.92 3235.67 1904.52 3250.11C1907 3252.87 1908.57 3256.73 1909.01 3261.09C1910.36 3275.03 1914.51 3287.96 1921.45 3299.88C1930.91 3316.26 1936.35 3328.14 1937.77 3335.54C1944.09 3368.01 1942.38 3400.67 1932.64 3433.51C1927.23 3451.54 1931.78 3465.77 1946.29 3476.23C1974.08 3504.48 1987.36 3499.5 1986.14 3461.28C1985.84 3450.87 1990.72 3442.99 2000.79 3437.62C2004.14 3435.83 2008.38 3436.28 2011.6 3438.72C2030.15 3452.87 2045.29 3471.99 2057.02 3496.09C2057.57 3497.23 2058.28 3498.28 2059.12 3499.23C2064.38 3505.27 2073.73 3505.95 2079.82 3500.74C2080.8 3499.91 2081.65 3498.98 2082.36 3497.93C2089.13 3488.15 2093.44 3476.98 2095.3 3464.45C2097.93 3447.44 2104.78 3444.88 2115.86 3456.77L2151.28 3494.83C2151.42 3494.98 2151.57 3495.14 2151.72 3495.29C2158.46 3502.08 2168.93 3502.91 2174.94 3497.09C2175.07 3496.96 2175.2 3496.83 2175.32 3496.7C2191.58 3479.66 2201.3 3458.33 2204.49 3432.7C2206.83 3414 2214.81 3412.01 2228.45 3426.74L2272.05 3473.74C2272.24 3473.96 2272.45 3474.16 2272.67 3474.35C2275.83 3477.04 2280.84 3476.48 2283.79 3473.11C2283.98 3472.9 2284.15 3472.67 2284.32 3472.44C2294.72 3457.44 2303.38 3448.73 2310.29 3446.31C2316.39 3444.09 2320.54 3438.4 2320.73 3431.96C2321.68 3402.71 2327.1 3391.27 2337.02 3397.63C2356.54 3410.17 2376.03 3422.79 2395.51 3435.49C2398.64 3437.6 2402.73 3438.32 2406.84 3437.51C2422.96 3434.51 2439.21 3437.39 2455.58 3446.16C2456.29 3446.53 2457.02 3446.83 2457.78 3447.06C2464.5 3449.12 2471.72 3445.39 2473.79 3438.82C2474.02 3438.03 2474.19 3437.23 2474.28 3436.42C2475.31 3427.08 2475.96 3416.21 2476.23 3403.83C2476.87 3371.42 2494.18 3370.31 2528.15 3400.45C2537.16 3408.44 2542 3406.46 2542.65 3394.53C2543.93 3372.88 2549.28 3360.95 2558.72 3358.72C2596.82 3344.31 2630.99 3323.55 2661.25 3296.45C2671.46 3287.28 2677.84 3275.21 2680.4 3260.23C2683.15 3244.62 2680.26 3243.56 2671.74 3257.04C2665.29 3267.26 2656.25 3274.71 2644.66 3279.4C2635.74 3283.13 2628.71 3288.71 2623.57 3296.14C2615.68 3307.75 2610.5 3314.58 2608.01 3316.61C2588.25 3332.92 2565.4 3342.46 2539.41 3345.26C2535.14 3345.72 2531.27 3343.66 2530.2 3340.38L2521.45 3314.01C2519.61 3308.37 2517.92 3304.79 2516.38 3303.25C2500.63 3288.35 2491.28 3295.11 2488.33 3323.54C2486.46 3340.59 2478.3 3350.13 2463.85 3352.14C2460.39 3352.62 2456.76 3350.52 2454.86 3346.93C2445.06 3328.16 2433.91 3310.15 2421.42 3292.92C2404.57 3269.53 2397.83 3272.41 2401.22 3301.6C2403.68 3322.25 2400.48 3338.53 2391.63 3350.48C2382.19 3363.28 2369.5 3367.14 2353.52 3362.07C2336.44 3356.69 2327.37 3342.86 2326.34 3320.56C2325.75 3308.46 2319.85 3293.63 2308.66 3276.08C2307.89 3274.84 2300.89 3261.79 2287.65 3236.94C2279.5 3221.69 2267.45 3209.44 2251.47 3200.2C2213.81 3178.4 2177.72 3154.26 2143.22 3127.81C2140.03 3125.38 2139.66 3125.75 2142.12 3128.91C2167.77 3161.93 2193.3 3195.09 2218.7 3228.39C2226.53 3238.68 2226.22 3241.11 2217.78 3235.68C2216.59 3235 2215.43 3234.08 2214.3 3232.91C2155.68 3173.17 2121.24 3134.87 2110.96 3118.02C2092.76 3087.93 2097.04 3071.13 2123.83 3067.62C2134.93 3066.21 2147.72 3069.1 2162.21 3076.32C2202.98 3096.59 2244.47 3116.01 2286.67 3134.56C2230.14 3093.75 2171 3059.29 2109.29 3031.18C2085.46 3020.42 2068.02 3022.03 2056.95 3035.99C2045.84 3050.11 2039.61 3048.24 2038.25 3030.37C2035.73 2997.59 2046.8 2985.42 2071.46 2993.86C2103.38 3004.93 2133.79 3019.23 2162.66 3036.78C2226.34 3075.5 2291.88 3110.9 2359.28 3142.98C2372.19 3149.07 2376.5 3148.22 2372.16 3140.45C2370.9 3138.21 2368.93 3136.38 2366.23 3134.95C2322.16 3111.45 2282.2 3082.68 2246.3 3048.67C2240.81 3043.46 2237.77 3038.14 2237.17 3032.68C2235.78 3020.36 2244.32 3017.76 2262.81 3024.89C2299.48 3038.99 2334.96 3055.57 2369.26 3074.64C2394.43 3088.5 2420.95 3097.55 2448.8 3101.76C2457.57 3103.1 2471.34 3102.1 2490.15 3098.75C2504.14 3096.27 2518.38 3096.07 2532.87 3098.17C2555.72 3101.49 2558.96 3106.58 2542.61 3113.43C2539.67 3114.65 2535.66 3115.1 2530.57 3114.79C2520.17 3114.1 2505.62 3116.13 2486.93 3120.88C2450.4 3130.1 2411.98 3124.25 2371.66 3103.33C2368.29 3101.53 2365.25 3100.39 2362.55 3099.89C2353.14 3098.11 2350.04 3100.09 2353.21 3105.85C2354.53 3108.17 2356.77 3110.29 2359.93 3112.2C2391.76 3131.18 2426.06 3143.29 2462.84 3148.55C2467.13 3149.24 2467.26 3150.17 2463.21 3151.34C2445.96 3156.15 2427.97 3156.06 2409.22 3151.07C2386.61 3145.09 2385.11 3148.42 2404.68 3161.06C2441.82 3185.27 2486.49 3191.59 2538.69 3180.01C2542.51 3179.19 2545.98 3176.88 2548.44 3173.53C2563.11 3153.58 2578.06 3133.88 2593.28 3114.43C2608 3095.52 2625.1 3081.28 2644.56 3071.72C2683.58 3052.54 2724.47 3038.01 2767.23 3028.13C2785.32 3023.98 2830.62 3019.48 2903.16 3014.61C2903.97 3014.49 2916.98 3014.51 2942.2 3014.66C2975.7 3014.82 3000.34 3002.57 3016.1 2977.89C3031.86 2953.22 3048.52 2908.28 3066.04 2843.07C3067.07 2839.15 3069.43 2835.77 3072.65 2833.54C3118.7 2801.3 3170.33 2783.85 3227.57 2781.19C3240.86 2780.56 3254.28 2768.19 3267.81 2744.09C3259 2738.39 3253.15 2737.13 3250.26 2740.33C3220.91 2760.94 3189.41 2763 3155.75 2746.5C3149.7 2743.57 3142.76 2743.05 3136.38 2745.05C3083.71 2761.27 3036.47 2756.2 2994.7 2729.84C2959.98 2708 2938.25 2680.14 2929.5 2646.21C2919.52 2607.25 2931.87 2569.51 2966.54 2532.99C2973.84 2518.31 2984.51 2505.56 2998.56 2494.74C2998.83 2494.53 2999.1 2494.31 2999.36 2494.09C3002.53 2491.3 3004.02 2487.78 3002.67 2486.26C3002.54 2486.12 3002.41 2486.01 3002.25 2485.92C3000.58 2484.85 2997.38 2484.85 2992.68 2485.92C2984.34 2487.94 2968.93 2496.59 2946.45 2511.88C2930.43 2520.54 2913.57 2526.9 2895.84 2530.99C2868.51 2537.32 2852.04 2543.16 2846.47 2548.51C2832.41 2561.81 2825.41 2582.79 2825.48 2611.47C2825.47 2615.73 2824.64 2619.85 2822.98 2623.82C2796.57 2686.63 2764.53 2740.14 2726.88 2784.37C2714.91 2798.5 2701.61 2807.45 2687 2811.2C2670.62 2815.41 2653.86 2816.26 2636.72 2813.77C2613.13 2810.33 2599.02 2807.78 2594.41 2806.15C2580.33 2801.44 2569.46 2790.72 2561.83 2774C2546.17 2739.51 2526.35 2703.26 2502.39 2665.25C2500.48 2662.29 2501.08 2658.29 2503.8 2655.79L2601.71 2564.46C2604.32 2562.03 2604.77 2557.98 2602.77 2554.9C2588.22 2532.83 2573.72 2516.58 2559.28 2506.14C2513.83 2473.63 2477.71 2439.52 2450.94 2403.79C2442.74 2409.52 2437.62 2414.77 2435.56 2419.57C2434.94 2432.28 2430.85 2443.11 2423.28 2452.09C2420.87 2454.91 2416.9 2456.26 2412.81 2455.68C2340.05 2444.19 2299.16 2403.41 2290.14 2333.33C2284.82 2291.92 2286.96 2248.12 2296.55 2201.93C2299.8 2186.38 2305.45 2173.68 2313.53 2163.82C2323.2 2152.03 2334.18 2142.86 2346.49 2136.33C2378.02 2119.82 2403.12 2104.62 2421.74 2090.73C2431.84 2083.15 2435.14 2084.28 2431.63 2094.14C2430.94 2096.25 2429.61 2098.18 2427.65 2099.93C2403.56 2121.43 2379.4 2142.76 2355.14 2163.95C2333.96 2182.5 2319.68 2201.41 2312.27 2220.66C2289.84 2278.87 2295.98 2334.92 2330.66 2388.81L2319.12 2310.22C2320.88 2274.54 2328.87 2240.28 2343.1 2207.41C2344.65 2203.75 2347.28 2200.53 2350.66 2198.14C2434.32 2139.58 2494.76 2085.66 2531.97 2036.37C2561.87 1996.63 2597.2 1962.38 2637.94 1933.6C2644.09 1929.27 2644.39 1930.51 2638.82 1937.3C2558.63 2035.29 2485.6 2138.2 2419.75 2246.01L2440.68 2292.68C2461.89 2220.66 2499.35 2159.32 2553.07 2108.67C2590.03 2073.82 2622.81 2035.47 2651.41 1993.67C2656.26 1986.67 2662.32 1981.46 2669.6 1978.03C2673.58 1976.16 2674.51 1977.14 2672.37 1980.98C2661.93 1999.72 2655.41 2020.54 2652.82 2043.45L2717.2 1962.18C2693.96 1928.9 2615.08 1894.04 2620.58 1857.62C2623.59 1837.74 2628.69 1817.07 2635.86 1795.62C2640.97 1780.16 2646.77 1759.87 2653.28 1734.73C2667.99 1677.53 2644.38 1663.61 2689.12 1622.65C2717.62 1596.59 2730.61 1566.06 2763.12 1545.22C2793.12 1517.65 2768.12 1548.65 2803.62 1484.15C2847.87 1464.8 2962.65 1436.32 2915.62 1440.65C2654.14 1442.87 2624.99 1462.32 2538.44 1499.15C2446.06 1538.46 2333.16 1600.61 2199.78 1685.6C2115.56 1747.92 2034.45 1824.21 1956.47 1914.46C1949.64 1922.36 1950.17 1928.01 1958.08 1931.42C2041.12 1839.76 2134.64 1760.16 2238.64 1692.63C2240.32 1691.57 2242.06 1690.61 2243.86 1689.74C2266 1680.17 2267.1 1682.78 2247.18 1697.58C2151.62 1768.5 2061.85 1845.99 1977.88 1930.05C1968.71 1939.16 1960.08 1942.98 1951.97 1941.48C1944.7 1940.98 1939.97 1946.22 1937.77 1957.21C1930.52 1993.4 1923.73 2029.66 1917.39 2066.01C1913.42 2088.02 1908.84 2124.69 1903.64 2176.03C1897.33 2237.89 1886.25 2296.21 1870.41 2350.97C1862.94 2376.78 1848.76 2400.57 1827.88 2422.36C1825.43 2424.94 1824.96 2428.8 1826.7 2431.88C1852.85 2478.52 1873.46 2527.4 1888.49 2578.53C1889.59 2582.33 1889.5 2586.45 1888.22 2590.35C1860.88 2675.44 1827.51 2759.59 1788.13 2842.82L1988.97 2739.31C1984.48 2719.04 1981.15 2698.5 1979 2677.68C1977.97 2667.41 1978.15 2639.95 1979.54 2595.31C1980.4 2567.57 1978.59 2539.99 1974.11 2512.54C1972.29 2501.12 1966.98 2491.65 1958.17 2484.16C1948.88 2476.27 1946.1 2478.09 1949.88 2489.64C1964.94 2535.56 1965.16 2581.82 1950.55 2628.39C1949.24 2632.63 1948.17 2632.63 1947.31 2628.38C1944.51 2613.44 1944.15 2598.42 1946.24 2583.3C1953.27 2534 1941.42 2494.18 1910.69 2463.83C1893.43 2446.72 1896.53 2441.45 1920 2448.02C1955.45 2457.94 1989.77 2470.44 2022.97 2485.53C2087.31 2514.71 2119.83 2529.44 2120.53 2529.72C2166.16 2548.38 2211.77 2567.07 2257.37 2585.8C2289.71 2599.04 2314.59 2614.57 2332 2632.4C2371.22 2672.55 2397.46 2720.84 2410.73 2777.26C2411.61 2780.91 2410.46 2784.79 2407.69 2787.41C2373.28 2820.01 2339.94 2853.67 2307.67 2888.39C2290.29 2906.98 2260.81 2920.48 2219.25 2928.9C2194.8 2928.8 2172.73 2921.21 2153.07 2906.15C2140 2896.1 2133.57 2897.88 2133.81 2911.51C2133.93 2919.93 2138.88 2927.57 2146.55 2931.2C2164.07 2939.59 2170.39 2945.84 2165.51 2949.94C2163.09 2951.93 2158.73 2952.24 2154.16 2950.73C2116.37 2938.71 2081.66 2920.8 2050.01 2897.01L2012.8 2874.36L1985.02 2889.98C1995.19 2893.44 2004.45 2898.75 2012.8 2905.92C2023.38 2915.03 2028.97 2919.79 2029.54 2920.2C2057.28 2941.1 2085.29 2961.65 2113.57 2981.84C2115.08 2982.97 2115.89 2984.54 2115.65 2985.88C2115.35 2987.5 2114.2 2987.91 2112.2 2987.09C2092.93 2979.05 2073.31 2972.02 2053.3 2966C2051.17 2965.32 2039.58 2963.91 2018.55 2961.78C2003.89 2960.24 1993.58 2952.87 1987.62 2939.69C1981.59 2926.4 1978.43 2919.5 1978.14 2919C1974.02 2912.38 1969.53 2906.08 1964.68 2900.08L1864.32 2953.74C1869.96 2957.84 1875.13 2962.55 1879.83 2967.87C1895.82 2985.81 1904.12 2995.1 1904.73 2995.69C1930.15 3019.27 1955.81 3042.61 1981.7 3065.72C1983.76 3067.58 1985.26 3069.57 1986.2 3071.71C1989.66 3080.1 1986.55 3081.79 1976.86 3076.78C1974.62 3075.55 1972.26 3073.86 1969.77 3071.72C1928.84 3036.11 1889.05 2999.28 1850.38 2961.22L1840.2 2966.53ZM2489.33 2507.42C2503.99 2520.39 2517.26 2530.08 2529.14 2536.47C2538.85 2541.67 2546.39 2550.04 2550.45 2560.09C2556.44 2574.73 2555.87 2585.75 2548.76 2593.14C2545.85 2596.07 2544.09 2595.29 2543.48 2590.77C2541.03 2571.31 2523.05 2547.95 2489.55 2520.66C2484.09 2516.23 2480.17 2510.2 2478.31 2503.44C2477 2498.38 2480.67 2499.71 2489.33 2507.42ZM2461.11 3034.4C2457.26 3034.9 2453.42 3030.23 2452.61 3024.08C2451.79 3017.91 2454.31 3012.44 2458.18 3011.93C2462.03 3011.44 2465.87 3016.11 2466.68 3022.26C2467.49 3028.42 2464.98 3033.9 2461.11 3034.4ZM2494.63 3065.46C2491.04 3065.34 2487.46 3067.28 2485.14 3070.6C2482.15 3075.05 2478.42 3078.58 2473.97 3081.17C2473.83 3081.24 2473.68 3081.32 2473.53 3081.38C2470.79 3082.6 2467.51 3081.32 2466.25 3078.54C2466.18 3078.37 2466.12 3078.22 2466.06 3078.06C2460.83 3063.2 2465.53 3053.56 2480.16 3049.12C2483.53 3048.19 2487.35 3048.07 2491.65 3048.76C2579.1 3063.16 2580.09 3068.74 2494.63 3065.46ZM2551.82 2989.86C2547.98 2989.13 2546.86 2990.6 2548.48 2994.29C2555 3009.51 2550.45 3015.79 2534.82 3013.12C2528 3011.97 2521.74 3011.37 2516.06 3011.32C2493.25 3010.91 2484.81 3000.87 2490.79 2981.22C2491.87 2977.73 2495.31 2975.4 2499.15 2975.5C2518.14 2975.7 2537.12 2976.75 2556.07 2978.63C2559.16 2978.99 2561.92 2980.01 2564.37 2981.72C2577.66 2991.33 2573.48 2994.04 2551.82 2989.86ZM2546.05 2920.05C2533.18 2912.6 2528.38 2901.67 2531.64 2887.23C2535.01 2872.73 2545.09 2867.92 2561.9 2872.79C2583.52 2879.19 2605.08 2885.81 2626.57 2892.68C2631.16 2894.13 2631.56 2896.04 2627.78 2898.39C2622.6 2901.72 2616.52 2902.62 2609.55 2901.1C2594.13 2897.71 2588.03 2901.85 2591.25 2913.5C2592.97 2919.63 2598.85 2923.74 2605.26 2923.31C2623.14 2922 2634.69 2922.3 2639.94 2924.19C2645.33 2926.12 2644.41 2928.29 2637.17 2930.7C2606.28 2941 2575.91 2937.45 2546.05 2920.05ZM2759.17 3000.67C2715.12 3013.59 2670.53 3024.32 2625.41 3032.84C2621.42 3033.6 2617.47 3032.24 2615.28 3029.37C2608.64 3020.94 2608.78 3013.98 2615.69 3008.5C2619.82 3005.21 2626.33 3003.54 2635.23 3003.47C2676.61 3003.19 2717.86 3001.3 2758.96 2997.8C2768.14 2997.04 2768.22 2998 2759.17 3000.67ZM2827.88 2762.73L2789.07 2842.33C2786.92 2846.74 2783.93 2849.86 2780.96 2850.8C2776.58 2852.23 2773.13 2851.17 2770.6 2847.65C2768.62 2844.87 2768.51 2840.54 2770.35 2836.32C2783.73 2804.92 2801.48 2779.36 2823.59 2759.61C2830.43 2753.5 2831.86 2754.55 2827.88 2762.73ZM2909.89 2955.34C2908.87 2958.91 2903.75 2960.66 2898.57 2959.2C2893.38 2957.75 2889.95 2953.62 2890.97 2950.04C2891.99 2946.46 2897.11 2944.72 2902.29 2946.17C2907.48 2947.63 2910.91 2951.76 2909.89 2955.34ZM2958.8 2744.1C2931.67 2775.31 2913.57 2810.89 2904.47 2850.83C2903.17 2856.6 2901.05 2856.91 2898.13 2851.74C2889.59 2836.39 2889.62 2820.79 2898.2 2804.93C2907.68 2787.46 2927.16 2766.68 2956.64 2742.6C2964.51 2736.19 2965.23 2736.69 2958.8 2744.1Z" fill="white" stroke="white" stroke-width="4" stroke-miterlimit="10"/>
<path fill-rule="evenodd" clip-rule="evenodd" d="M3055.62 2237.35C3033.62 2251.51 3083.62 2329.51 3096.31 2323.51L3299.62 2230.5C3365.5 2205.3 3404.6 2140.74 3393.62 2123.01C3383.07 2105.97 3305.38 2104.08 3245.3 2138.85C3213.68 2157.15 3055.62 2237.35 3055.62 2237.35Z" fill="#E1B000"/>
<path d="M3033.12 2304.01L2628.63 2505.83" stroke="white" stroke-opacity="0.5" stroke-width="28"/>
<path d="M2171.47 2726.09L1413 3096.73" stroke="white" stroke-opacity="0.5" stroke-width="28"/>
<path d="M2749.63 2649.63C2747.41 2646.2 2743.71 2644.1 2738.5 2643.32L2705.5 2631.14C2688.13 2624.65 2679.76 2629.95 2680.4 2647.02C2681.67 2678.43 2678.22 2707.22 2670.04 2733.42C2661.98 2759.48 2667.61 2763.19 2686.91 2744.54C2698.7 2733.17 2714.15 2705.5 2733.28 2661.56C2735.6 2656.16 2741.05 2652.18 2749.63 2649.63Z" fill="white" stroke="white" stroke-width="4" stroke-miterlimit="10"/>
<path d="M2564.67 3448.1C2527.02 3444.38 2496.61 3458.26 2473.47 3489.74C2473.09 3490.25 2472.76 3490.78 2472.47 3491.34C2468.66 3498.44 2472.03 3507.69 2479.94 3511.83C2480.54 3512.14 2481.15 3512.43 2481.78 3512.67L2526.35 3529.62C2566.07 3521.29 2581.54 3496.87 2572.78 3456.38C2571.42 3449.95 2568.72 3447.18 2564.67 3448.1Z" fill="white" stroke="white" stroke-width="4" stroke-miterlimit="10"/>
<path d="M2318.86 3586.19L2338.6 3583.66C2344.06 3579.04 2346.25 3574.11 2345.16 3568.86C2343.66 3561.44 2342.91 3557.61 2342.89 3557.35C2343.65 3544.17 2348.81 3543.31 2358.38 3554.77C2361.59 3558.58 2364.95 3561.18 2368.43 3562.58C2391.7 3571.65 2412.53 3569.25 2430.9 3555.37C2442.9 3546.28 2449.57 3535.43 2450.93 3522.85C2452.82 3505.72 2443.16 3493.8 2421.97 3487.1C2418.87 3486.16 2414.74 3486.31 2410.21 3487.52C2398.72 3490.62 2389.01 3487.9 2381.1 3479.38C2377.83 3475.89 2374.32 3473.6 2371.19 3472.89C2351.36 3468.37 2336.84 3473.9 2327.64 3489.49C2320.6 3501.43 2312.94 3509.09 2304.64 3512.48C2300.87 3514.01 2298.34 3517.09 2298.11 3520.38C2295.99 3544.95 2302.91 3566.89 2318.86 3586.19Z" fill="white" stroke="white" stroke-width="4" stroke-miterlimit="10"/>
<path d="M2263.49 3595.77C2263.66 3595.7 2263.83 3595.64 2264.02 3595.57C2275.18 3591.16 2280.68 3578.44 2276.22 3567.4C2276.15 3567.24 2276.08 3567.07 2276.01 3566.91C2272.34 3558.62 2267.69 3548.07 2262.05 3535.23C2255.93 3521.33 2249.94 3511.67 2244.07 3506.28C2230.16 3493.43 2214.74 3493.04 2197.84 3505.11C2175.4 3521.18 2170.78 3544.11 2183.98 3573.91C2197 3603.14 2223.5 3610.43 2263.49 3595.77Z" fill="white" stroke="white" stroke-width="4" stroke-miterlimit="10"/>
<path d="M2097.67 3617.05C2123.14 3622.98 2146.92 3618.97 2169.02 3605.03C2164.47 3577.82 2152.87 3554.87 2134.25 3536.19C2125.35 3527.21 2116.21 3522.82 2106.85 3523.02C2092.63 3523.3 2084.79 3533.05 2083.35 3552.26C2081.8 3572.14 2086.58 3593.73 2097.67 3617.05Z" fill="white" stroke="white" stroke-width="4" stroke-miterlimit="10"/>
<path d="M1989.14 3598.96C2007.09 3616.1 2027.89 3623.87 2051.53 3622.3C2057.05 3572.84 2043.19 3532.24 2009.93 3500.5C2009.42 3500.01 2008.87 3499.58 2008.29 3499.18C2002.74 3495.47 1995.13 3496.88 1991.42 3502.31C1991.02 3502.89 1990.68 3503.48 1990.4 3504.12C1975.99 3535.49 1975.58 3567.1 1989.14 3598.96Z" fill="white" stroke="white" stroke-width="4" stroke-miterlimit="10"/>
<path d="M1927.84 3530.62C1924.48 3560.13 1930.69 3587.59 1946.45 3612.98C1958.18 3631.96 1963.92 3630.58 1963.67 3608.84L1927.84 3530.62Z" fill="white" stroke="white" stroke-width="4" stroke-miterlimit="10"/>
</g>
<defs>
<clipPath id="clip0_3848_2382">
<rect width="1984.46" height="2190.04" fill="white" transform="translate(1413 1438.21)"/>
</clipPath>
</defs>
</svg>
