<svg width="5000" height="5000" viewBox="0 0 5000 5000" fill="none" xmlns="http://www.w3.org/2000/svg">
<g clip-path="url(#clip0_3848_2302)">
<path d="M5521.35 -680.289H-540.164V5317.91H5521.35V-680.289Z" stroke="#A7A7A7" stroke-width="0.000893508" stroke-miterlimit="1.5" stroke-linecap="round" stroke-linejoin="round"/>
<path fill-rule="evenodd" clip-rule="evenodd" d="M2351 1864C2406.51 1848.39 2465.03 1840.05 2525.48 1840.05C2589.97 1840.05 2637.37 1842.03 2696.17 1859.72C2696.17 1859.72 2492.79 1655.7 2719 1458.08C2719 1458.08 2351 1442.35 2351 1864Z" fill="white" stroke="white"/>
<path fill-rule="evenodd" clip-rule="evenodd" d="M2710 3138C2654.63 3153.53 2596.28 3161.84 2536 3161.84C2471.68 3161.84 2424.4 3159.86 2365.77 3142.26C2365.77 3142.26 2568.6 3345.27 2343 3541.92C2343 3541.92 2710 3557.57 2710 3138Z" fill="white" stroke="white"/>
<path fill-rule="evenodd" clip-rule="evenodd" d="M3135 2319C3150.5 2374.51 3158.77 2433.03 3158.77 2493.48C3158.77 2557.97 3156.81 2605.38 3139.25 2664.18C3139.25 2664.18 3341.76 2460.79 3537.92 2687C3537.92 2687 3553.53 2319 3135 2319Z" fill="white" stroke="white"/>
<path fill-rule="evenodd" clip-rule="evenodd" d="M1864 2680C1848.59 2624.64 1840.34 2566.28 1840.34 2506C1840.34 2441.68 1842.31 2394.4 1859.77 2335.77C1859.77 2335.77 1658.27 2538.59 1463.07 2313C1463.07 2313 1447.55 2680 1864 2680Z" fill="white" stroke="white"/>
<path fill-rule="evenodd" clip-rule="evenodd" d="M2877 1919.19C2926.67 1947.36 2973.4 1982.7 3015.7 2025.22C3060.82 2070.59 3092.62 2105.31 3121.5 2159C3121.5 2159 3120.67 1873.72 3416 1895.08C3416 1895.08 3169.39 1625.27 2877 1919.19Z" fill="white" stroke="white"/>
<path fill-rule="evenodd" clip-rule="evenodd" d="M2190 3088.14C2140.52 3060.05 2093.97 3024.81 2051.84 2982.41C2006.88 2937.17 1975.21 2902.54 1946.44 2849C1946.44 2849 1947.23 3133.52 1653 3112.26C1653 3112.26 1898.65 3381.31 2190 3088.14Z" fill="white" stroke="white"/>
<path fill-rule="evenodd" clip-rule="evenodd" d="M3122.39 2842C3094.55 2891.7 3059.58 2938.45 3017.49 2980.75C2972.58 3025.87 2938.19 3057.65 2885 3086.48C2885 3086.48 3167.95 3086.18 3147.33 3382C3147.33 3382 3414.47 3135.47 3122.39 2842Z" fill="white" stroke="white"/>
<path fill-rule="evenodd" clip-rule="evenodd" d="M1935.29 2173C1963.05 2123.49 1997.91 2076.92 2039.88 2034.79C2084.66 1989.84 2118.96 1958.18 2172 1929.47C2172 1929.47 1889.81 1929.72 1910.33 1635C1910.33 1635 1643.95 1880.57 1935.29 2173Z" fill="white" stroke="white"/>
<path fill-rule="evenodd" clip-rule="evenodd" d="M2527.3 1699.28C2977.76 1699.28 3336.88 2059.24 3336.88 2495.77C3336.88 2947.29 2977.76 3307.25 2527.3 3307.25C2091.78 3307.25 1732.66 2947.29 1732.66 2495.77C1732.66 2059.24 2091.78 1699.28 2527.3 1699.28Z" stroke="white" stroke-opacity="0.5" stroke-width="50"/>
<path fill-rule="evenodd" clip-rule="evenodd" d="M2527 2041C2783.74 2041 2981 2250.73 2981 2496C2981 2753.31 2783.74 2951 2527 2951C2282.27 2951 2073 2753.31 2073 2496C2073 2250.73 2282.27 2041 2527 2041Z" stroke="white" stroke-width="112"/>
</g>
<defs>
<clipPath id="clip0_3848_2302">
<rect width="5000" height="5000" fill="white"/>
</clipPath>
</defs>
</svg>
